<?xml version="1.0" encoding="utf-8"?>
<svg version="1.1" id="Layer_1"
xmlns="http://www.w3.org/2000/svg"
xmlns:xlink="http://www.w3.org/1999/xlink"
xmlns:author="http://www.sothink.com"
width="277px" height="277px"
xml:space="preserve">
<g id="10" transform="matrix(1, 0, 0, 1, -117.5, -117)">
<path style="fill:#ED1C24;fill-opacity:1" d="M326.85,133.75L343.65 133.75L343.65 175.3L326.85 175.3L326.85 192.1L310.05 192.1L310.05 200.9L326.85 200.9L326.85 217.65L394 217.65L394 359.9L343.65 359.9L343.65 368.7L360.4 368.7L360.4 393.5L285.3 393.5L285.3 343.15L276.5 343.15L276.5 359.9L234.95 359.9L234.95 343.15L226.15 343.15L226.15 393.5L151.05 393.5L151.05 368.7L167.8 368.7L167.8 318.35L184.6 318.35L184.6 301.55L201.4 301.55L201.4 292.8L184.6 292.8L184.6 276L159.05 276L159.05 292.8L142.25 292.8L142.25 309.55L117.5 309.55L117.5 133.75L134.25 133.75L134.25 117L159.05 117L159.05 234.45L167.8 234.45L167.8 217.65L184.6 217.65L184.6 200.9L201.4 200.9L201.4 192.1L184.6 192.1L184.6 175.3L167.8 175.3L167.8 133.75L184.6 133.75L184.6 117L209.4 117L209.4 141.75L192.6 141.75L192.6 167.3L201.4 167.3L201.4 150.55L218.15 150.55L218.15 133.75L293.3 133.75L293.3 150.55L310.05 150.55L310.05 167.3L318.85 167.3L318.85 141.75L302.05 141.75L302.05 117L326.85 117L326.85 133.75M324.85,119L304.05 119L304.05 139.75L320.85 139.75L320.85 169.3L308.05 169.3L308.05 152.55L291.3 152.55L291.3 135.75L220.15 135.75L220.15 152.55L203.4 152.55L203.4 169.3L190.6 169.3L190.6 139.75L207.4 139.75L207.4 119L186.6 119L186.6 135.75L169.8 135.75L169.8 173.3L186.6 173.3L186.6 190.1L203.4 190.1L203.4 202.9L186.6 202.9L186.6 219.65L169.8 219.65L169.8 236.45L157.05 236.45L157.05 119L136.25 119L136.25 135.75L119.5 135.75L119.5 307.55L140.25 307.55L140.25 290.8L157.05 290.8L157.05 274L186.6 274L186.6 290.8L203.4 290.8L203.4 303.55L186.6 303.55L186.6 320.35L169.8 320.35L169.8 370.7L153.05 370.7L153.05 391.5L224.15 391.5L224.15 341.15L236.95 341.15L236.95 357.9L274.5 357.9L274.5 341.15L287.3 341.15L287.3 391.5L358.4 391.5L358.4 370.7L341.65 370.7L341.65 357.9L392 357.9L392 219.65L324.85 219.65L324.85 202.9L308.05 202.9L308.05 190.1L324.85 190.1L324.85 173.3L341.65 173.3L341.65 135.75L324.85 135.75L324.85 119" />
<path style="fill:#000000;fill-opacity:1" d="M324.85,135.75L341.65 135.75L341.65 173.3L324.85 173.3L324.85 190.1L308.05 190.1L308.05 202.9L324.85 202.9L324.85 219.65L392 219.65L392 357.9L341.65 357.9L341.65 370.7L358.4 370.7L358.4 391.5L287.3 391.5L287.3 341.15L274.5 341.15L274.5 357.9L236.95 357.9L236.95 341.15L224.15 341.15L224.15 391.5L153.05 391.5L153.05 370.7L169.8 370.7L169.8 320.35L186.6 320.35L186.6 303.55L203.4 303.55L203.4 290.8L186.6 290.8L186.6 274L157.05 274L157.05 290.8L140.25 290.8L140.25 307.55L119.5 307.55L119.5 135.75L136.25 135.75L136.25 119L157.05 119L157.05 236.45L169.8 236.45L169.8 219.65L186.6 219.65L186.6 202.9L203.4 202.9L203.4 190.1L186.6 190.1L186.6 173.3L169.8 173.3L169.8 135.75L186.6 135.75L186.6 119L207.4 119L207.4 139.75L190.6 139.75L190.6 169.3L203.4 169.3L203.4 152.55L220.15 152.55L220.15 135.75L291.3 135.75L291.3 152.55L308.05 152.55L308.05 169.3L320.85 169.3L320.85 139.75L304.05 139.75L304.05 119L324.85 119L324.85 135.75" />
</g>
</svg>
