<?xml version="1.0" encoding="utf-8"?>
<svg version="1.1" id="Layer_1"
xmlns="http://www.w3.org/2000/svg"
xmlns:xlink="http://www.w3.org/1999/xlink"
xmlns:author="http://www.sothink.com"
width="63px" height="13px"
xml:space="preserve">
<g id="13" transform="matrix(1, 0, 0, 1, -374.45, -125.3)">
<path style="fill:#ED1C24;fill-opacity:1" d="M437,131.4Q437 133.9 435.25 135.65Q433.5 137.4 431 137.4Q428.5 137.4 426.75 135.65Q425 133.9 425 131.4Q425 128.9 426.75 127.15Q428.5 125.4 431 125.4Q433.5 125.4 435.25 127.15Q437 128.9 437 131.4" />
<path style="fill:#ED1C24;fill-opacity:1" d="M386.45,131.3Q386.45 133.8 384.7 135.55Q382.95 137.3 380.45 137.3Q378 137.3 376.2 135.55Q374.45 133.8 374.45 131.3Q374.45 128.8 376.2 127.05Q377.95 125.3 380.45 125.3Q382.95 125.3 384.7 127.05Q386.45 128.8 386.45 131.3" />
</g>
</svg>
