<?xml version="1.0" encoding="utf-8"?>
<svg version="1.1" id="Layer_1"
xmlns="http://www.w3.org/2000/svg"
xmlns:xlink="http://www.w3.org/1999/xlink"
xmlns:author="http://www.sothink.com"
width="105px" height="105px"
xml:space="preserve">
<g id="15" transform="matrix(1, 0, 0, 1, -15.5, -12.5)">
<path style="fill:#FFFFFF;fill-opacity:1" d="M15.5,14.5L17.5 14.5L17.5 12.5L15.5 12.5L15.5 14.5" />
<path style="fill:#FFDC00;fill-opacity:1" d="M17.5,14.5L19.5 14.5L19.5 12.5L17.5 12.5L17.5 14.5" />
<path style="fill:#FF8500;fill-opacity:1" d="M19.5,14.5L20.5 14.5L20.5 12.5L19.5 12.5L19.5 14.5" />
<path style="fill:#FF8600;fill-opacity:1" d="M20.5,14.5L21.5 14.5L21.5 12.5L20.5 12.5L20.5 14.5" />
<path style="fill:#A74A00;fill-opacity:1" d="M21.5,14.5L22.5 14.5L22.5 12.5L21.5 12.5L21.5 14.5" />
<path style="fill:#A94A00;fill-opacity:1" d="M22.5,13.5L23.5 13.5L23.5 12.5L22.5 12.5L22.5 13.5" />
<path style="fill:#541E00;fill-opacity:1" d="M23.5,13.5L24.5 13.5L24.5 12.5L23.5 12.5L23.5 13.5" />
<path style="fill:#531F00;fill-opacity:1" d="M24.5,13.5L25.5 13.5L25.5 12.5L24.5 12.5L24.5 13.5" />
<path style="fill:#450A00;fill-opacity:1" d="M25.5,14.5L27.5 14.5L27.5 12.5L25.5 12.5L25.5 14.5" />
<path style="fill:#000000;fill-opacity:1" d="M27.5,14.5L29.5 14.5L29.5 12.5L27.5 12.5L27.5 14.5" />
<path style="fill:#986B42;fill-opacity:1" d="M29.5,13.5L30.5 13.5L30.5 12.5L29.5 12.5L29.5 13.5" />
<path style="fill:#986C42;fill-opacity:1" d="M30.5,13.5L31.5 13.5L31.5 12.5L30.5 12.5L30.5 13.5" />
<path style="fill:#F6C696;fill-opacity:1" d="M31.5,13.5L33.5 13.5L33.5 14.5L34.5 14.5L34.5 13.5L36.5 13.5L36.5 12.5L31.5 12.5L31.5 13.5" />
<path style="fill:#F6C295;fill-opacity:1" d="M36.5,13.5L34.5 13.5L34.5 14.5L39.5 14.5L39.5 13.5L37.5 13.5L37.5 12.5L36.5 12.5L36.5 13.5" />
<path style="fill:#F4C393;fill-opacity:1" d="M37.5,13.5L39.5 13.5L39.5 12.5L37.5 12.5L37.5 13.5" />
<path style="fill:#F6C295;fill-opacity:1" d="M39.5,13.5L40.5 13.5L40.5 12.5L39.5 12.5L39.5 13.5" />
<path style="fill:#F6C393;fill-opacity:1" d="M40.5,13.5L42.5 13.5L42.5 12.5L40.5 12.5L40.5 13.5" />
<path style="fill:#F4C393;fill-opacity:1" d="M42.5,13.5L43.5 13.5L43.5 12.5L42.5 12.5L42.5 13.5" />
<path style="fill:#F6C295;fill-opacity:1" d="M43.5,13.5L44.5 13.5L44.5 14.5L45.5 14.5L45.5 12.5L43.5 12.5L43.5 13.5" />
<path style="fill:#F6C393;fill-opacity:1" d="M45.5,13.5L46.5 13.5L46.5 12.5L45.5 12.5L45.5 13.5" />
<path style="fill:#F6C295;fill-opacity:1" d="M46.5,14.5L47.5 14.5L47.5 13.5L48.5 13.5L48.5 12.5L46.5 12.5L46.5 14.5" />
<path style="fill:#F4C393;fill-opacity:1" d="M48.5,13.5L49.5 13.5L49.5 12.5L48.5 12.5L48.5 13.5" />
<path style="fill:#F6C696;fill-opacity:1" d="M49.5,13.5L50.5 13.5L50.5 12.5L49.5 12.5L49.5 13.5" />
<path style="fill:#F6C295;fill-opacity:1" d="M50.5,13.5L51.5 13.5L51.5 12.5L50.5 12.5L50.5 13.5" />
<path style="fill:#F6C696;fill-opacity:1" d="M51.5,13.5L53.5 13.5L53.5 14.5L54.5 14.5L54.5 13.5L56.5 13.5L56.5 12.5L51.5 12.5L51.5 13.5" />
<path style="fill:#F6C295;fill-opacity:1" d="M56.5,13.5L54.5 13.5L54.5 14.5L59.5 14.5L59.5 13.5L57.5 13.5L57.5 12.5L56.5 12.5L56.5 13.5" />
<path style="fill:#F4C393;fill-opacity:1" d="M57.5,13.5L59.5 13.5L59.5 12.5L57.5 12.5L57.5 13.5" />
<path style="fill:#F6C295;fill-opacity:1" d="M59.5,13.5L60.5 13.5L60.5 12.5L59.5 12.5L59.5 13.5" />
<path style="fill:#F6C393;fill-opacity:1" d="M60.5,13.5L62.5 13.5L62.5 12.5L60.5 12.5L60.5 13.5" />
<path style="fill:#F4C393;fill-opacity:1" d="M62.5,13.5L63.5 13.5L63.5 12.5L62.5 12.5L62.5 13.5" />
<path style="fill:#F6C295;fill-opacity:1" d="M63.5,13.5L64.5 13.5L64.5 14.5L65.5 14.5L65.5 12.5L63.5 12.5L63.5 13.5" />
<path style="fill:#F6C393;fill-opacity:1" d="M65.5,13.5L66.5 13.5L66.5 12.5L65.5 12.5L65.5 13.5" />
<path style="fill:#F6C295;fill-opacity:1" d="M66.5,14.5L67.5 14.5L67.5 13.5L68.5 13.5L68.5 12.5L66.5 12.5L66.5 14.5" />
<path style="fill:#F4C393;fill-opacity:1" d="M68.5,13.5L69.5 13.5L69.5 12.5L68.5 12.5L68.5 13.5" />
<path style="fill:#F6C696;fill-opacity:1" d="M69.5,13.5L70.5 13.5L70.5 12.5L69.5 12.5L69.5 13.5" />
<path style="fill:#F6C295;fill-opacity:1" d="M70.5,13.5L71.5 13.5L71.5 12.5L70.5 12.5L70.5 13.5" />
<path style="fill:#F6C696;fill-opacity:1" d="M71.5,13.5L73.5 13.5L73.5 14.5L74.5 14.5L74.5 13.5L76.5 13.5L76.5 12.5L71.5 12.5L71.5 13.5" />
<path style="fill:#F6C295;fill-opacity:1" d="M76.5,13.5L74.5 13.5L74.5 14.5L79.5 14.5L79.5 13.5L77.5 13.5L77.5 12.5L76.5 12.5L76.5 13.5" />
<path style="fill:#F4C393;fill-opacity:1" d="M77.5,13.5L79.5 13.5L79.5 12.5L77.5 12.5L77.5 13.5" />
<path style="fill:#F6C295;fill-opacity:1" d="M79.5,13.5L80.5 13.5L80.5 12.5L79.5 12.5L79.5 13.5" />
<path style="fill:#F6C393;fill-opacity:1" d="M80.5,13.5L82.5 13.5L82.5 12.5L80.5 12.5L80.5 13.5" />
<path style="fill:#F4C393;fill-opacity:1" d="M82.5,13.5L83.5 13.5L83.5 12.5L82.5 12.5L82.5 13.5" />
<path style="fill:#F6C295;fill-opacity:1" d="M83.5,13.5L84.5 13.5L84.5 12.5L83.5 12.5L83.5 13.5" />
<path style="fill:#F6C696;fill-opacity:1" d="M84.5,13.5L86.5 13.5L86.5 14.5L87.5 14.5L87.5 13.5L89.5 13.5L89.5 12.5L84.5 12.5L84.5 13.5" />
<path style="fill:#F6C295;fill-opacity:1" d="M89.5,13.5L87.5 13.5L87.5 14.5L92.5 14.5L92.5 13.5L90.5 13.5L90.5 12.5L89.5 12.5L89.5 13.5" />
<path style="fill:#F4C393;fill-opacity:1" d="M90.5,13.5L92.5 13.5L92.5 12.5L90.5 12.5L90.5 13.5" />
<path style="fill:#F6C295;fill-opacity:1" d="M92.5,13.5L93.5 13.5L93.5 12.5L92.5 12.5L92.5 13.5" />
<path style="fill:#F6C393;fill-opacity:1" d="M93.5,13.5L95.5 13.5L95.5 12.5L93.5 12.5L93.5 13.5" />
<path style="fill:#F4C393;fill-opacity:1" d="M95.5,13.5L96.5 13.5L96.5 12.5L95.5 12.5L95.5 13.5" />
<path style="fill:#F6C295;fill-opacity:1" d="M96.5,13.5L97.5 13.5L97.5 14.5L98.5 14.5L98.5 12.5L96.5 12.5L96.5 13.5" />
<path style="fill:#F6C393;fill-opacity:1" d="M98.5,13.5L99.5 13.5L99.5 12.5L98.5 12.5L98.5 13.5" />
<path style="fill:#F6C295;fill-opacity:1" d="M99.5,14.5L100.5 14.5L100.5 13.5L101.5 13.5L101.5 12.5L99.5 12.5L99.5 14.5" />
<path style="fill:#F4C393;fill-opacity:1" d="M101.5,13.5L102.5 13.5L102.5 12.5L101.5 12.5L101.5 13.5" />
<path style="fill:#F6C696;fill-opacity:1" d="M102.5,13.5L103.5 13.5L103.5 12.5L102.5 12.5L102.5 13.5" />
<path style="fill:#F6C295;fill-opacity:1" d="M103.5,13.5L104.5 13.5L104.5 12.5L103.5 12.5L103.5 13.5" />
<path style="fill:#966C41;fill-opacity:1" d="M104.5,13.5L105.5 13.5L105.5 14.5L106.5 14.5L106.5 12.5L104.5 12.5L104.5 13.5" />
<path style="fill:#000000;fill-opacity:1" d="M106.5,14.5L108.5 14.5L108.5 12.5L106.5 12.5L106.5 14.5" />
<path style="fill:#440B00;fill-opacity:1" d="M108.5,13.5L110.5 13.5L110.5 12.5L108.5 12.5L108.5 13.5" />
<path style="fill:#531F00;fill-opacity:1" d="M110.5,14.5L112.5 14.5L112.5 12.5L110.5 12.5L110.5 14.5" />
<path style="fill:#AA4900;fill-opacity:1" d="M112.5,13.5L113.5 13.5L113.5 12.5L112.5 12.5L112.5 13.5" />
<path style="fill:#A64800;fill-opacity:1" d="M113.5,14.5L114.5 14.5L114.5 12.5L113.5 12.5L113.5 14.5" />
<path style="fill:#FF8500;fill-opacity:1" d="M114.5,14.5L116.5 14.5L116.5 13.5L115.5 13.5L115.5 12.5L114.5 12.5L114.5 14.5" />
<path style="fill:#FF8600;fill-opacity:1" d="M115.5,13.5L116.5 13.5L116.5 12.5L115.5 12.5L115.5 13.5" />
<path style="fill:#FFDC00;fill-opacity:1" d="M116.5,14.5L117.5 14.5L117.5 13.5L118.5 13.5L118.5 12.5L116.5 12.5L116.5 14.5" />
<path style="fill:#FFFFFF;fill-opacity:1" d="M118.5,14.5L120.5 14.5L120.5 12.5L118.5 12.5L118.5 14.5" />
<path style="fill:#AA4900;fill-opacity:1" d="M22.5,14.5L23.5 14.5L23.5 13.5L22.5 13.5L22.5 14.5" />
<path style="fill:#532000;fill-opacity:1" d="M23.5,14.5L25.5 14.5L25.5 13.5L23.5 13.5L23.5 14.5" />
<path style="fill:#956A42;fill-opacity:1" d="M29.5,14.5L31.5 14.5L31.5 13.5L29.5 13.5L29.5 14.5" />
<path style="fill:#F6C295;fill-opacity:1" d="M31.5,14.5L33.5 14.5L33.5 13.5L31.5 13.5L31.5 14.5" />
<path style="fill:#F6C696;fill-opacity:1" d="M39.5,14.5L40.5 14.5L40.5 13.5L39.5 13.5L39.5 14.5" />
<path style="fill:#F4C393;fill-opacity:1" d="M40.5,14.5L41.5 14.5L41.5 13.5L40.5 13.5L40.5 14.5" />
<path style="fill:#F6C696;fill-opacity:1" d="M41.5,14.5L42.5 14.5L42.5 13.5L41.5 13.5L41.5 14.5" />
<path style="fill:#F6C295;fill-opacity:1" d="M42.5,14.5L43.5 14.5L43.5 13.5L42.5 13.5L42.5 14.5" />
<path style="fill:#F6C393;fill-opacity:1" d="M43.5,14.5L44.5 14.5L44.5 13.5L43.5 13.5L43.5 14.5" />
<path style="fill:#F6C696;fill-opacity:1" d="M45.5,14.5L46.5 14.5L46.5 13.5L45.5 13.5L45.5 14.5" />
<path style="fill:#F6C696;fill-opacity:1" d="M47.5,14.5L48.5 14.5L48.5 13.5L47.5 13.5L47.5 14.5" />
<path style="fill:#F6C393;fill-opacity:1" d="M48.5,14.5L49.5 14.5L49.5 13.5L48.5 13.5L48.5 14.5" />
<path style="fill:#F6C295;fill-opacity:1" d="M49.5,14.5L50.5 14.5L50.5 13.5L49.5 13.5L49.5 14.5" />
<path style="fill:#F6C696;fill-opacity:1" d="M50.5,14.5L51.5 14.5L51.5 13.5L50.5 13.5L50.5 14.5" />
<path style="fill:#F6C295;fill-opacity:1" d="M51.5,14.5L53.5 14.5L53.5 13.5L51.5 13.5L51.5 14.5" />
<path style="fill:#F6C696;fill-opacity:1" d="M59.5,14.5L60.5 14.5L60.5 13.5L59.5 13.5L59.5 14.5" />
<path style="fill:#F4C393;fill-opacity:1" d="M60.5,14.5L61.5 14.5L61.5 13.5L60.5 13.5L60.5 14.5" />
<path style="fill:#F6C696;fill-opacity:1" d="M61.5,14.5L62.5 14.5L62.5 13.5L61.5 13.5L61.5 14.5" />
<path style="fill:#F6C295;fill-opacity:1" d="M62.5,14.5L63.5 14.5L63.5 13.5L62.5 13.5L62.5 14.5" />
<path style="fill:#F6C393;fill-opacity:1" d="M63.5,14.5L64.5 14.5L64.5 13.5L63.5 13.5L63.5 14.5" />
<path style="fill:#F6C696;fill-opacity:1" d="M65.5,14.5L66.5 14.5L66.5 13.5L65.5 13.5L65.5 14.5" />
<path style="fill:#F6C696;fill-opacity:1" d="M67.5,14.5L68.5 14.5L68.5 13.5L67.5 13.5L67.5 14.5" />
<path style="fill:#F6C393;fill-opacity:1" d="M68.5,14.5L69.5 14.5L69.5 13.5L68.5 13.5L68.5 14.5" />
<path style="fill:#F6C295;fill-opacity:1" d="M69.5,14.5L70.5 14.5L70.5 13.5L69.5 13.5L69.5 14.5" />
<path style="fill:#F6C696;fill-opacity:1" d="M70.5,14.5L71.5 14.5L71.5 13.5L70.5 13.5L70.5 14.5" />
<path style="fill:#F6C295;fill-opacity:1" d="M71.5,14.5L73.5 14.5L73.5 13.5L71.5 13.5L71.5 14.5" />
<path style="fill:#F6C696;fill-opacity:1" d="M79.5,14.5L80.5 14.5L80.5 13.5L79.5 13.5L79.5 14.5" />
<path style="fill:#F4C393;fill-opacity:1" d="M80.5,14.5L81.5 14.5L81.5 13.5L80.5 13.5L80.5 14.5" />
<path style="fill:#F6C696;fill-opacity:1" d="M81.5,14.5L82.5 14.5L82.5 13.5L81.5 13.5L81.5 14.5" />
<path style="fill:#F6C295;fill-opacity:1" d="M82.5,14.5L83.5 14.5L83.5 13.5L82.5 13.5L82.5 14.5" />
<path style="fill:#F6C393;fill-opacity:1" d="M83.5,14.5L84.5 14.5L84.5 13.5L83.5 13.5L83.5 14.5" />
<path style="fill:#F6C295;fill-opacity:1" d="M84.5,14.5L86.5 14.5L86.5 13.5L84.5 13.5L84.5 14.5" />
<path style="fill:#F6C696;fill-opacity:1" d="M92.5,14.5L93.5 14.5L93.5 13.5L92.5 13.5L92.5 14.5" />
<path style="fill:#F4C393;fill-opacity:1" d="M93.5,14.5L94.5 14.5L94.5 13.5L93.5 13.5L93.5 14.5" />
<path style="fill:#F6C696;fill-opacity:1" d="M94.5,14.5L95.5 14.5L95.5 13.5L94.5 13.5L94.5 14.5" />
<path style="fill:#F6C295;fill-opacity:1" d="M95.5,14.5L96.5 14.5L96.5 13.5L95.5 13.5L95.5 14.5" />
<path style="fill:#F6C393;fill-opacity:1" d="M96.5,14.5L97.5 14.5L97.5 13.5L96.5 13.5L96.5 14.5" />
<path style="fill:#F6C696;fill-opacity:1" d="M98.5,14.5L99.5 14.5L99.5 13.5L98.5 13.5L98.5 14.5" />
<path style="fill:#F6C696;fill-opacity:1" d="M100.5,14.5L101.5 14.5L101.5 13.5L100.5 13.5L100.5 14.5" />
<path style="fill:#F6C393;fill-opacity:1" d="M101.5,14.5L102.5 14.5L102.5 13.5L101.5 13.5L101.5 14.5" />
<path style="fill:#F6C295;fill-opacity:1" d="M102.5,14.5L103.5 14.5L103.5 13.5L102.5 13.5L102.5 14.5" />
<path style="fill:#F6C696;fill-opacity:1" d="M103.5,14.5L104.5 14.5L104.5 13.5L103.5 13.5L103.5 14.5" />
<path style="fill:#966B42;fill-opacity:1" d="M104.5,14.5L105.5 14.5L105.5 13.5L104.5 13.5L104.5 14.5" />
<path style="fill:#440C00;fill-opacity:1" d="M108.5,14.5L109.5 14.5L109.5 13.5L108.5 13.5L108.5 14.5" />
<path style="fill:#450C00;fill-opacity:1" d="M109.5,14.5L110.5 14.5L110.5 13.5L109.5 13.5L109.5 14.5" />
<path style="fill:#A94A00;fill-opacity:1" d="M112.5,14.5L113.5 14.5L113.5 13.5L112.5 13.5L112.5 14.5" />
<path style="fill:#FFDD00;fill-opacity:1" d="M117.5,14.5L118.5 14.5L118.5 13.5L117.5 13.5L117.5 14.5" />
<path style="fill:#FFDC00;fill-opacity:1" d="M15.5,16.5L17.5 16.5L17.5 14.5L15.5 14.5L15.5 16.5" />
<path style="fill:#2C241D;fill-opacity:1" d="M17.5,15.5L18.5 15.5L18.5 16.5L19.5 16.5L19.5 14.5L17.5 14.5L17.5 15.5" />
<path style="fill:#AA4900;fill-opacity:1" d="M19.5,15.5L20.5 15.5L20.5 14.5L19.5 14.5L19.5 15.5" />
<path style="fill:#A94A00;fill-opacity:1" d="M20.5,15.5L19.5 15.5L19.5 16.5L21.5 16.5L21.5 14.5L20.5 14.5L20.5 15.5" />
<path style="fill:#2C241D;fill-opacity:1" d="M21.5,16.5L23.5 16.5L23.5 15.5L22.5 15.5L22.5 14.5L21.5 14.5L21.5 16.5" />
<path style="fill:#2C241C;fill-opacity:1" d="M22.5,15.5L23.5 15.5L23.5 14.5L22.5 14.5L22.5 15.5" />
<path style="fill:#2C241D;fill-opacity:1" d="M23.5,15.5L24.5 15.5L24.5 14.5L23.5 14.5L23.5 15.5" />
<path style="fill:#2B241D;fill-opacity:1" d="M24.5,15.5L23.5 15.5L23.5 16.5L110.5 16.5L110.5 14.5L31.5 14.5L31.5 15.5L30.5 15.5L30.5 14.5L29.5 14.5L29.5 15.5L28.5 15.5L28.5 14.5L27.5 14.5L27.5 15.5L25.5 15.5L25.5 14.5L24.5 14.5L24.5 15.5" />
<path style="fill:#2C241D;fill-opacity:1" d="M25.5,15.5L27.5 15.5L27.5 14.5L25.5 14.5L25.5 15.5" />
<path style="fill:#2C241D;fill-opacity:1" d="M28.5,15.5L29.5 15.5L29.5 14.5L28.5 14.5L28.5 15.5" />
<path style="fill:#2C241D;fill-opacity:1" d="M30.5,15.5L31.5 15.5L31.5 14.5L30.5 14.5L30.5 15.5" />
<path style="fill:#2B241C;fill-opacity:1" d="M110.5,16.5L111.5 16.5L111.5 15.5L112.5 15.5L112.5 14.5L110.5 14.5L110.5 16.5" />
<path style="fill:#2B241D;fill-opacity:1" d="M112.5,15.5L113.5 15.5L113.5 14.5L112.5 14.5L112.5 15.5" />
<path style="fill:#2B241C;fill-opacity:1" d="M113.5,15.5L114.5 15.5L114.5 14.5L113.5 14.5L113.5 15.5" />
<path style="fill:#A64800;fill-opacity:1" d="M114.5,15.5L115.5 15.5L115.5 16.5L116.5 16.5L116.5 14.5L114.5 14.5L114.5 15.5" />
<path style="fill:#2B241C;fill-opacity:1" d="M116.5,15.5L118.5 15.5L118.5 14.5L116.5 14.5L116.5 15.5" />
<path style="fill:#FFDC00;fill-opacity:1" d="M118.5,16.5L120.5 16.5L120.5 14.5L118.5 14.5L118.5 16.5" />
<path style="fill:#2C241C;fill-opacity:1" d="M17.5,16.5L18.5 16.5L18.5 15.5L17.5 15.5L17.5 16.5" />
<path style="fill:#2B241D;fill-opacity:1" d="M111.5,16.5L112.5 16.5L112.5 15.5L111.5 15.5L111.5 16.5" />
<path style="fill:#2B241C;fill-opacity:1" d="M112.5,16.5L113.5 16.5L113.5 15.5L112.5 15.5L112.5 16.5" />
<path style="fill:#2B241D;fill-opacity:1" d="M113.5,16.5L114.5 16.5L114.5 15.5L113.5 15.5L113.5 16.5" />
<path style="fill:#A94A00;fill-opacity:1" d="M114.5,16.5L115.5 16.5L115.5 15.5L114.5 15.5L114.5 16.5" />
<path style="fill:#2B231C;fill-opacity:1" d="M116.5,16.5L117.5 16.5L117.5 15.5L116.5 15.5L116.5 16.5" />
<path style="fill:#2B241D;fill-opacity:1" d="M117.5,16.5L118.5 16.5L118.5 15.5L117.5 15.5L117.5 16.5" />
<path style="fill:#FF8500;fill-opacity:1" d="M15.5,18.5L16.5 18.5L16.5 16.5L15.5 16.5L15.5 18.5" />
<path style="fill:#FF8600;fill-opacity:1" d="M16.5,18.5L17.5 18.5L17.5 16.5L16.5 16.5L16.5 18.5" />
<path style="fill:#A94A00;fill-opacity:1" d="M17.5,17.5L18.5 17.5L18.5 18.5L19.5 18.5L19.5 16.5L17.5 16.5L17.5 17.5" />
<path style="fill:#531F00;fill-opacity:1" d="M19.5,18.5L21.5 18.5L21.5 16.5L19.5 16.5L19.5 18.5" />
<path style="fill:#2B241C;fill-opacity:1" d="M21.5,17.5L22.5 17.5L22.5 16.5L21.5 16.5L21.5 17.5" />
<path style="fill:#2B241D;fill-opacity:1" d="M22.5,17.5L21.5 17.5L21.5 20.5L22.5 20.5L22.5 19.5L23.5 19.5L23.5 16.5L22.5 16.5L22.5 17.5" />
<path style="fill:#373028;fill-opacity:1" d="M23.5,20.5L19.5 20.5L19.5 102.5L20.5 102.5L20.5 103.5L19.5 103.5L19.5 109.5L23.5 109.5L23.5 113.5L27.5 113.5L27.5 112.5L28.5 112.5L28.5 113.5L33.5 113.5L33.5 111.5L31.5 111.5L31.5 112.5L30.5 112.5L30.5 111.5L25.5 111.5L25.5 107.5L22.5 107.5L22.5 108.5L21.5 108.5L21.5 22.5L25.5 22.5L25.5 18.5L73.5 18.5L73.5 17.5L74.5 17.5L74.5 16.5L62.5 16.5L62.5 17.5L61.5 17.5L61.5 16.5L23.5 16.5L23.5 20.5" />
<path style="fill:#383028;fill-opacity:1" d="M61.5,17.5L62.5 17.5L62.5 16.5L61.5 16.5L61.5 17.5" />
<path style="fill:#383028;fill-opacity:1" d="M74.5,17.5L75.5 17.5L75.5 16.5L74.5 16.5L74.5 17.5" />
<path style="fill:#373028;fill-opacity:1" d="M75.5,17.5L74.5 17.5L74.5 18.5L78.5 18.5L78.5 16.5L77.5 16.5L77.5 17.5L76.5 17.5L76.5 16.5L75.5 16.5L75.5 17.5" />
<path style="fill:#383028;fill-opacity:1" d="M76.5,17.5L77.5 17.5L77.5 16.5L76.5 16.5L76.5 17.5" />
<path style="fill:#383028;fill-opacity:1" d="M78.5,18.5L79.5 18.5L79.5 16.5L78.5 16.5L78.5 18.5" />
<path style="fill:#373028;fill-opacity:1" d="M79.5,18.5L80.5 18.5L80.5 17.5L82.5 17.5L82.5 18.5L84.5 18.5L84.5 16.5L79.5 16.5L79.5 18.5" />
<path style="fill:#383028;fill-opacity:1" d="M84.5,18.5L88.5 18.5L88.5 17.5L85.5 17.5L85.5 16.5L84.5 16.5L84.5 18.5" />
<path style="fill:#373028;fill-opacity:1" d="M85.5,17.5L88.5 17.5L88.5 18.5L91.5 18.5L91.5 16.5L85.5 16.5L85.5 17.5" />
<path style="fill:#383028;fill-opacity:1" d="M91.5,18.5L92.5 18.5L92.5 16.5L91.5 16.5L91.5 18.5" />
<path style="fill:#373028;fill-opacity:1" d="M92.5,18.5L95.5 18.5L95.5 17.5L96.5 17.5L96.5 18.5L110.5 18.5L110.5 22.5L114.5 22.5L114.5 107.5L110.5 107.5L110.5 111.5L103.5 111.5L103.5 112.5L101.5 112.5L101.5 113.5L104.5 113.5L104.5 112.5L105.5 112.5L105.5 113.5L106.5 113.5L106.5 112.5L107.5 112.5L107.5 113.5L112.5 113.5L112.5 111.5L111.5 111.5L111.5 110.5L112.5 110.5L112.5 109.5L116.5 109.5L116.5 20.5L112.5 20.5L112.5 16.5L92.5 16.5L92.5 18.5" />
<path style="fill:#2B241D;fill-opacity:1" d="M112.5,17.5L113.5 17.5L113.5 16.5L112.5 16.5L112.5 17.5" />
<path style="fill:#2B241C;fill-opacity:1" d="M113.5,17.5L114.5 17.5L114.5 16.5L113.5 16.5L113.5 17.5" />
<path style="fill:#531F00;fill-opacity:1" d="M114.5,18.5L116.5 18.5L116.5 16.5L114.5 16.5L114.5 18.5" />
<path style="fill:#A64800;fill-opacity:1" d="M116.5,17.5L117.5 17.5L117.5 16.5L116.5 16.5L116.5 17.5" />
<path style="fill:#A94A00;fill-opacity:1" d="M117.5,18.5L118.5 18.5L118.5 16.5L117.5 16.5L117.5 18.5" />
<path style="fill:#FF8500;fill-opacity:1" d="M118.5,18.5L120.5 18.5L120.5 17.5L119.5 17.5L119.5 16.5L118.5 16.5L118.5 18.5" />
<path style="fill:#FF8600;fill-opacity:1" d="M119.5,17.5L120.5 17.5L120.5 16.5L119.5 16.5L119.5 17.5" />
<path style="fill:#A64800;fill-opacity:1" d="M17.5,18.5L18.5 18.5L18.5 17.5L17.5 17.5L17.5 18.5" />
<path style="fill:#383028;fill-opacity:1" d="M73.5,18.5L74.5 18.5L74.5 17.5L73.5 17.5L73.5 18.5" />
<path style="fill:#383028;fill-opacity:1" d="M80.5,18.5L82.5 18.5L82.5 17.5L80.5 17.5L80.5 18.5" />
<path style="fill:#383028;fill-opacity:1" d="M95.5,18.5L96.5 18.5L96.5 17.5L95.5 17.5L95.5 18.5" />
<path style="fill:#2B241C;fill-opacity:1" d="M112.5,18.5L113.5 18.5L113.5 17.5L112.5 17.5L112.5 18.5" />
<path style="fill:#2B231C;fill-opacity:1" d="M113.5,18.5L114.5 18.5L114.5 17.5L113.5 17.5L113.5 18.5" />
<path style="fill:#AA4900;fill-opacity:1" d="M116.5,18.5L117.5 18.5L117.5 17.5L116.5 17.5L116.5 18.5" />
<path style="fill:#A64800;fill-opacity:1" d="M15.5,20.5L17.5 20.5L17.5 18.5L15.5 18.5L15.5 20.5" />
<path style="fill:#2B241D;fill-opacity:1" d="M17.5,111.5L19.5 111.5L19.5 110.5L20.5 110.5L20.5 109.5L19.5 109.5L19.5 18.5L17.5 18.5L17.5 111.5" />
<path style="fill:#2B231C;fill-opacity:1" d="M19.5,19.5L20.5 19.5L20.5 18.5L19.5 18.5L19.5 19.5" />
<path style="fill:#2B241C;fill-opacity:1" d="M20.5,19.5L19.5 19.5L19.5 20.5L21.5 20.5L21.5 18.5L20.5 18.5L20.5 19.5" />
<path style="fill:#43382E;fill-opacity:1" d="M25.5,22.5L21.5 22.5L21.5 107.5L25.5 107.5L25.5 111.5L49.5 111.5L49.5 110.5L50.5 110.5L50.5 111.5L64.5 111.5L64.5 110.5L65.5 110.5L65.5 111.5L76.5 111.5L76.5 110.5L74.5 110.5L74.5 109.5L75.5 109.5L75.5 108.5L76.5 108.5L76.5 110.5L77.5 110.5L77.5 111.5L110.5 111.5L110.5 107.5L114.5 107.5L114.5 22.5L110.5 22.5L110.5 18.5L25.5 18.5L25.5 22.5" />
<path style="fill:#2B241D;fill-opacity:1" d="M112.5,19.5L113.5 19.5L113.5 20.5L114.5 20.5L114.5 19.5L115.5 19.5L115.5 18.5L112.5 18.5L112.5 19.5" />
<path style="fill:#2B241C;fill-opacity:1" d="M115.5,19.5L117.5 19.5L117.5 22.5L118.5 22.5L118.5 18.5L115.5 18.5L115.5 19.5" />
<path style="fill:#A64800;fill-opacity:1" d="M118.5,20.5L119.5 20.5L119.5 19.5L120.5 19.5L120.5 18.5L118.5 18.5L118.5 20.5" />
<path style="fill:#2B241C;fill-opacity:1" d="M22.5,20.5L23.5 20.5L23.5 19.5L22.5 19.5L22.5 20.5" />
<path style="fill:#2B241C;fill-opacity:1" d="M112.5,20.5L113.5 20.5L113.5 19.5L112.5 19.5L112.5 20.5" />
<path style="fill:#2B241C;fill-opacity:1" d="M114.5,20.5L115.5 20.5L115.5 19.5L114.5 19.5L114.5 20.5" />
<path style="fill:#2B231C;fill-opacity:1" d="M115.5,20.5L116.5 20.5L116.5 19.5L115.5 19.5L115.5 20.5" />
<path style="fill:#2B241D;fill-opacity:1" d="M116.5,106.5L117.5 106.5L117.5 107.5L118.5 107.5L118.5 25.5L117.5 25.5L117.5 24.5L118.5 24.5L118.5 22.5L117.5 22.5L117.5 19.5L116.5 19.5L116.5 106.5" />
<path style="fill:#AA4900;fill-opacity:1" d="M119.5,20.5L120.5 20.5L120.5 19.5L119.5 19.5L119.5 20.5" />
<path style="fill:#531F00;fill-opacity:1" d="M15.5,22.5L17.5 22.5L17.5 20.5L15.5 20.5L15.5 22.5" />
<path style="fill:#531F00;fill-opacity:1" d="M118.5,22.5L120.5 22.5L120.5 20.5L118.5 20.5L118.5 22.5" />
<path style="fill:#440B00;fill-opacity:1" d="M15.5,23.5L16.5 23.5L16.5 22.5L15.5 22.5L15.5 23.5" />
<path style="fill:#450C00;fill-opacity:1" d="M16.5,23.5L17.5 23.5L17.5 22.5L16.5 22.5L16.5 23.5" />
<path style="fill:#450C00;fill-opacity:1" d="M118.5,24.5L120.5 24.5L120.5 23.5L119.5 23.5L119.5 22.5L118.5 22.5L118.5 24.5" />
<path style="fill:#440C00;fill-opacity:1" d="M119.5,23.5L120.5 23.5L120.5 22.5L119.5 22.5L119.5 23.5" />
<path style="fill:#440C00;fill-opacity:1" d="M15.5,24.5L16.5 24.5L16.5 23.5L15.5 23.5L15.5 24.5" />
<path style="fill:#440B00;fill-opacity:1" d="M16.5,24.5L17.5 24.5L17.5 23.5L16.5 23.5L16.5 24.5" />
<path style="fill:#000000;fill-opacity:1" d="M15.5,26.5L17.5 26.5L17.5 24.5L15.5 24.5L15.5 26.5" />
<path style="fill:#2B241C;fill-opacity:1" d="M117.5,25.5L118.5 25.5L118.5 24.5L117.5 24.5L117.5 25.5" />
<path style="fill:#000000;fill-opacity:1" d="M118.5,26.5L120.5 26.5L120.5 24.5L118.5 24.5L118.5 26.5" />
<path style="fill:#956941;fill-opacity:1" d="M15.5,27.5L16.5 27.5L16.5 26.5L15.5 26.5L15.5 27.5" />
<path style="fill:#966C41;fill-opacity:1" d="M16.5,27.5L15.5 27.5L15.5 28.5L17.5 28.5L17.5 26.5L16.5 26.5L16.5 27.5" />
<path style="fill:#5A4532;fill-opacity:1" d="M118.5,27.5L119.5 27.5L119.5 28.5L120.5 28.5L120.5 26.5L118.5 26.5L118.5 27.5" />
<path style="fill:#5A4632;fill-opacity:1" d="M118.5,28.5L119.5 28.5L119.5 27.5L118.5 27.5L118.5 28.5" />
<path style="fill:#F6C295;fill-opacity:1" d="M15.5,30.5L16.5 30.5L16.5 28.5L15.5 28.5L15.5 30.5" />
<path style="fill:#F6C496;fill-opacity:1" d="M16.5,30.5L17.5 30.5L17.5 28.5L16.5 28.5L16.5 30.5" />
<path style="fill:#F6C295;fill-opacity:1" d="M118.5,30.5L119.5 30.5L119.5 28.5L118.5 28.5L118.5 30.5" />
<path style="fill:#F6C496;fill-opacity:1" d="M119.5,29.5L120.5 29.5L120.5 28.5L119.5 28.5L119.5 29.5" />
<path style="fill:#F6C696;fill-opacity:1" d="M119.5,30.5L120.5 30.5L120.5 29.5L119.5 29.5L119.5 30.5" />
<path style="fill:#F6C496;fill-opacity:1" d="M15.5,31.5L16.5 31.5L16.5 30.5L15.5 30.5L15.5 31.5" />
<path style="fill:#F6C696;fill-opacity:1" d="M16.5,33.5L17.5 33.5L17.5 30.5L16.5 30.5L16.5 33.5" />
<path style="fill:#F6C696;fill-opacity:1" d="M118.5,31.5L119.5 31.5L119.5 30.5L118.5 30.5L118.5 31.5" />
<path style="fill:#F6C496;fill-opacity:1" d="M119.5,31.5L120.5 31.5L120.5 30.5L119.5 30.5L119.5 31.5" />
<path style="fill:#F6C295;fill-opacity:1" d="M15.5,36.5L16.5 36.5L16.5 34.5L17.5 34.5L17.5 33.5L16.5 33.5L16.5 31.5L15.5 31.5L15.5 36.5" />
<path style="fill:#F6C295;fill-opacity:1" d="M118.5,36.5L119.5 36.5L119.5 34.5L120.5 34.5L120.5 33.5L119.5 33.5L119.5 31.5L118.5 31.5L118.5 36.5" />
<path style="fill:#F6C696;fill-opacity:1" d="M119.5,33.5L120.5 33.5L120.5 31.5L119.5 31.5L119.5 33.5" />
<path style="fill:#F4C392;fill-opacity:1" d="M16.5,36.5L17.5 36.5L17.5 34.5L16.5 34.5L16.5 36.5" />
<path style="fill:#F4C392;fill-opacity:1" d="M119.5,36.5L120.5 36.5L120.5 34.5L119.5 34.5L119.5 36.5" />
<path style="fill:#F6C496;fill-opacity:1" d="M15.5,37.5L16.5 37.5L16.5 36.5L15.5 36.5L15.5 37.5" />
<path style="fill:#F6C295;fill-opacity:1" d="M16.5,37.5L17.5 37.5L17.5 36.5L16.5 36.5L16.5 37.5" />
<path style="fill:#F6C696;fill-opacity:1" d="M118.5,37.5L119.5 37.5L119.5 36.5L118.5 36.5L118.5 37.5" />
<path style="fill:#F6C295;fill-opacity:1" d="M119.5,37.5L120.5 37.5L120.5 36.5L119.5 36.5L119.5 37.5" />
<path style="fill:#F4C392;fill-opacity:1" d="M15.5,38.5L16.5 38.5L16.5 37.5L15.5 37.5L15.5 38.5" />
<path style="fill:#F6C392;fill-opacity:1" d="M16.5,39.5L17.5 39.5L17.5 37.5L16.5 37.5L16.5 39.5" />
<path style="fill:#F4C392;fill-opacity:1" d="M118.5,38.5L119.5 38.5L119.5 37.5L118.5 37.5L118.5 38.5" />
<path style="fill:#F6C392;fill-opacity:1" d="M119.5,39.5L120.5 39.5L120.5 37.5L119.5 37.5L119.5 39.5" />
<path style="fill:#F6C696;fill-opacity:1" d="M15.5,39.5L16.5 39.5L16.5 38.5L15.5 38.5L15.5 39.5" />
<path style="fill:#F6C496;fill-opacity:1" d="M118.5,39.5L119.5 39.5L119.5 38.5L118.5 38.5L118.5 39.5" />
<path style="fill:#F6C295;fill-opacity:1" d="M15.5,40.5L16.5 40.5L16.5 39.5L15.5 39.5L15.5 40.5" />
<path style="fill:#F4C392;fill-opacity:1" d="M16.5,40.5L17.5 40.5L17.5 39.5L16.5 39.5L16.5 40.5" />
<path style="fill:#F6C295;fill-opacity:1" d="M118.5,40.5L119.5 40.5L119.5 39.5L118.5 39.5L118.5 40.5" />
<path style="fill:#F4C392;fill-opacity:1" d="M119.5,40.5L120.5 40.5L120.5 39.5L119.5 39.5L119.5 40.5" />
<path style="fill:#F6C392;fill-opacity:1" d="M15.5,41.5L16.5 41.5L16.5 40.5L15.5 40.5L15.5 41.5" />
<path style="fill:#F6C295;fill-opacity:1" d="M16.5,41.5L15.5 41.5L15.5 42.5L17.5 42.5L17.5 40.5L16.5 40.5L16.5 41.5" />
<path style="fill:#F6C392;fill-opacity:1" d="M118.5,41.5L119.5 41.5L119.5 40.5L118.5 40.5L118.5 41.5" />
<path style="fill:#F6C295;fill-opacity:1" d="M119.5,41.5L118.5 41.5L118.5 42.5L120.5 42.5L120.5 40.5L119.5 40.5L119.5 41.5" />
<path style="fill:#F6C696;fill-opacity:1" d="M15.5,43.5L16.5 43.5L16.5 42.5L15.5 42.5L15.5 43.5" />
<path style="fill:#F6C392;fill-opacity:1" d="M16.5,43.5L17.5 43.5L17.5 42.5L16.5 42.5L16.5 43.5" />
<path style="fill:#F6C696;fill-opacity:1" d="M118.5,43.5L119.5 43.5L119.5 42.5L118.5 42.5L118.5 43.5" />
<path style="fill:#F6C392;fill-opacity:1" d="M119.5,43.5L120.5 43.5L120.5 42.5L119.5 42.5L119.5 43.5" />
<path style="fill:#F6C295;fill-opacity:1" d="M15.5,44.5L16.5 44.5L16.5 45.5L17.5 45.5L17.5 43.5L15.5 43.5L15.5 44.5" />
<path style="fill:#F6C295;fill-opacity:1" d="M118.5,44.5L119.5 44.5L119.5 45.5L120.5 45.5L120.5 43.5L118.5 43.5L118.5 44.5" />
<path style="fill:#F6C696;fill-opacity:1" d="M15.5,45.5L16.5 45.5L16.5 44.5L15.5 44.5L15.5 45.5" />
<path style="fill:#F6C496;fill-opacity:1" d="M118.5,45.5L119.5 45.5L119.5 44.5L118.5 44.5L118.5 45.5" />
<path style="fill:#F6C393;fill-opacity:1" d="M15.5,46.5L16.5 46.5L16.5 45.5L15.5 45.5L15.5 46.5" />
<path style="fill:#F4C393;fill-opacity:1" d="M16.5,46.5L17.5 46.5L17.5 45.5L16.5 45.5L16.5 46.5" />
<path style="fill:#F6C392;fill-opacity:1" d="M118.5,46.5L119.5 46.5L119.5 45.5L118.5 45.5L118.5 46.5" />
<path style="fill:#F4C392;fill-opacity:1" d="M119.5,46.5L120.5 46.5L120.5 45.5L119.5 45.5L119.5 46.5" />
<path style="fill:#F6C295;fill-opacity:1" d="M15.5,47.5L16.5 47.5L16.5 46.5L15.5 46.5L15.5 47.5" />
<path style="fill:#F6C696;fill-opacity:1" d="M16.5,47.5L17.5 47.5L17.5 46.5L16.5 46.5L16.5 47.5" />
<path style="fill:#F6C295;fill-opacity:1" d="M118.5,47.5L119.5 47.5L119.5 46.5L118.5 46.5L118.5 47.5" />
<path style="fill:#F6C696;fill-opacity:1" d="M119.5,47.5L120.5 47.5L120.5 46.5L119.5 46.5L119.5 47.5" />
<path style="fill:#F6C696;fill-opacity:1" d="M15.5,48.5L16.5 48.5L16.5 47.5L15.5 47.5L15.5 48.5" />
<path style="fill:#F6C295;fill-opacity:1" d="M16.5,48.5L17.5 48.5L17.5 47.5L16.5 47.5L16.5 48.5" />
<path style="fill:#F6C696;fill-opacity:1" d="M118.5,48.5L119.5 48.5L119.5 47.5L118.5 47.5L118.5 48.5" />
<path style="fill:#F6C295;fill-opacity:1" d="M119.5,48.5L120.5 48.5L120.5 47.5L119.5 47.5L119.5 48.5" />
<path style="fill:#F6C295;fill-opacity:1" d="M15.5,50.5L16.5 50.5L16.5 48.5L15.5 48.5L15.5 50.5" />
<path style="fill:#F6C696;fill-opacity:1" d="M16.5,50.5L15.5 50.5L15.5 51.5L16.5 51.5L16.5 53.5L17.5 53.5L17.5 48.5L16.5 48.5L16.5 50.5" />
<path style="fill:#F6C295;fill-opacity:1" d="M118.5,50.5L119.5 50.5L119.5 48.5L118.5 48.5L118.5 50.5" />
<path style="fill:#F6C696;fill-opacity:1" d="M119.5,50.5L118.5 50.5L118.5 51.5L120.5 51.5L120.5 48.5L119.5 48.5L119.5 50.5" />
<path style="fill:#F6C295;fill-opacity:1" d="M15.5,56.5L16.5 56.5L16.5 54.5L17.5 54.5L17.5 53.5L16.5 53.5L16.5 51.5L15.5 51.5L15.5 56.5" />
<path style="fill:#F6C295;fill-opacity:1" d="M118.5,56.5L119.5 56.5L119.5 54.5L120.5 54.5L120.5 53.5L119.5 53.5L119.5 51.5L118.5 51.5L118.5 56.5" />
<path style="fill:#F6C496;fill-opacity:1" d="M119.5,52.5L120.5 52.5L120.5 51.5L119.5 51.5L119.5 52.5" />
<path style="fill:#F6C696;fill-opacity:1" d="M119.5,53.5L120.5 53.5L120.5 52.5L119.5 52.5L119.5 53.5" />
<path style="fill:#F4C392;fill-opacity:1" d="M16.5,55.5L17.5 55.5L17.5 54.5L16.5 54.5L16.5 55.5" />
<path style="fill:#F4C392;fill-opacity:1" d="M119.5,56.5L120.5 56.5L120.5 54.5L119.5 54.5L119.5 56.5" />
<path style="fill:#F4C393;fill-opacity:1" d="M16.5,56.5L17.5 56.5L17.5 55.5L16.5 55.5L16.5 56.5" />
<path style="fill:#F6C696;fill-opacity:1" d="M15.5,57.5L16.5 57.5L16.5 56.5L15.5 56.5L15.5 57.5" />
<path style="fill:#F6C295;fill-opacity:1" d="M16.5,57.5L17.5 57.5L17.5 56.5L16.5 56.5L16.5 57.5" />
<path style="fill:#F6C696;fill-opacity:1" d="M118.5,57.5L119.5 57.5L119.5 56.5L118.5 56.5L118.5 57.5" />
<path style="fill:#F6C295;fill-opacity:1" d="M119.5,57.5L120.5 57.5L120.5 56.5L119.5 56.5L119.5 57.5" />
<path style="fill:#F4C392;fill-opacity:1" d="M15.5,58.5L16.5 58.5L16.5 57.5L15.5 57.5L15.5 58.5" />
<path style="fill:#F6C392;fill-opacity:1" d="M16.5,59.5L17.5 59.5L17.5 57.5L16.5 57.5L16.5 59.5" />
<path style="fill:#F4C392;fill-opacity:1" d="M118.5,58.5L119.5 58.5L119.5 57.5L118.5 57.5L118.5 58.5" />
<path style="fill:#F6C392;fill-opacity:1" d="M119.5,59.5L120.5 59.5L120.5 57.5L119.5 57.5L119.5 59.5" />
<path style="fill:#F6C696;fill-opacity:1" d="M15.5,59.5L16.5 59.5L16.5 58.5L15.5 58.5L15.5 59.5" />
<path style="fill:#F6C696;fill-opacity:1" d="M118.5,59.5L119.5 59.5L119.5 58.5L118.5 58.5L118.5 59.5" />
<path style="fill:#F6C295;fill-opacity:1" d="M15.5,60.5L16.5 60.5L16.5 59.5L15.5 59.5L15.5 60.5" />
<path style="fill:#F4C392;fill-opacity:1" d="M16.5,60.5L17.5 60.5L17.5 59.5L16.5 59.5L16.5 60.5" />
<path style="fill:#F6C295;fill-opacity:1" d="M118.5,60.5L119.5 60.5L119.5 59.5L118.5 59.5L118.5 60.5" />
<path style="fill:#F4C392;fill-opacity:1" d="M119.5,60.5L120.5 60.5L120.5 59.5L119.5 59.5L119.5 60.5" />
<path style="fill:#F6C392;fill-opacity:1" d="M15.5,61.5L16.5 61.5L16.5 60.5L15.5 60.5L15.5 61.5" />
<path style="fill:#F6C295;fill-opacity:1" d="M16.5,61.5L15.5 61.5L15.5 62.5L17.5 62.5L17.5 60.5L16.5 60.5L16.5 61.5" />
<path style="fill:#F6C392;fill-opacity:1" d="M118.5,61.5L119.5 61.5L119.5 60.5L118.5 60.5L118.5 61.5" />
<path style="fill:#F6C295;fill-opacity:1" d="M119.5,61.5L118.5 61.5L118.5 62.5L120.5 62.5L120.5 60.5L119.5 60.5L119.5 61.5" />
<path style="fill:#F6C696;fill-opacity:1" d="M15.5,63.5L16.5 63.5L16.5 62.5L15.5 62.5L15.5 63.5" />
<path style="fill:#F6C392;fill-opacity:1" d="M16.5,63.5L17.5 63.5L17.5 62.5L16.5 62.5L16.5 63.5" />
<path style="fill:#F6C496;fill-opacity:1" d="M118.5,63.5L119.5 63.5L119.5 62.5L118.5 62.5L118.5 63.5" />
<path style="fill:#F6C392;fill-opacity:1" d="M119.5,63.5L120.5 63.5L120.5 62.5L119.5 62.5L119.5 63.5" />
<path style="fill:#F6C295;fill-opacity:1" d="M15.5,64.5L16.5 64.5L16.5 65.5L17.5 65.5L17.5 63.5L15.5 63.5L15.5 64.5" />
<path style="fill:#F6C295;fill-opacity:1" d="M118.5,64.5L119.5 64.5L119.5 65.5L120.5 65.5L120.5 63.5L118.5 63.5L118.5 64.5" />
<path style="fill:#F6C696;fill-opacity:1" d="M15.5,65.5L16.5 65.5L16.5 64.5L15.5 64.5L15.5 65.5" />
<path style="fill:#F6C496;fill-opacity:1" d="M118.5,65.5L119.5 65.5L119.5 64.5L118.5 64.5L118.5 65.5" />
<path style="fill:#F6C392;fill-opacity:1" d="M15.5,66.5L16.5 66.5L16.5 65.5L15.5 65.5L15.5 66.5" />
<path style="fill:#F4C392;fill-opacity:1" d="M16.5,66.5L17.5 66.5L17.5 65.5L16.5 65.5L16.5 66.5" />
<path style="fill:#F6C392;fill-opacity:1" d="M118.5,66.5L119.5 66.5L119.5 65.5L118.5 65.5L118.5 66.5" />
<path style="fill:#F4C392;fill-opacity:1" d="M119.5,66.5L120.5 66.5L120.5 65.5L119.5 65.5L119.5 66.5" />
<path style="fill:#F6C295;fill-opacity:1" d="M15.5,67.5L16.5 67.5L16.5 66.5L15.5 66.5L15.5 67.5" />
<path style="fill:#F6C696;fill-opacity:1" d="M16.5,67.5L17.5 67.5L17.5 66.5L16.5 66.5L16.5 67.5" />
<path style="fill:#F6C295;fill-opacity:1" d="M118.5,67.5L119.5 67.5L119.5 66.5L118.5 66.5L118.5 67.5" />
<path style="fill:#F6C696;fill-opacity:1" d="M119.5,67.5L120.5 67.5L120.5 66.5L119.5 66.5L119.5 67.5" />
<path style="fill:#F6C496;fill-opacity:1" d="M15.5,68.5L16.5 68.5L16.5 67.5L15.5 67.5L15.5 68.5" />
<path style="fill:#F6C295;fill-opacity:1" d="M16.5,68.5L17.5 68.5L17.5 67.5L16.5 67.5L16.5 68.5" />
<path style="fill:#F6C496;fill-opacity:1" d="M118.5,68.5L119.5 68.5L119.5 67.5L118.5 67.5L118.5 68.5" />
<path style="fill:#F6C295;fill-opacity:1" d="M119.5,68.5L120.5 68.5L120.5 67.5L119.5 67.5L119.5 68.5" />
<path style="fill:#F6C295;fill-opacity:1" d="M15.5,70.5L16.5 70.5L16.5 68.5L15.5 68.5L15.5 70.5" />
<path style="fill:#F6C696;fill-opacity:1" d="M16.5,70.5L17.5 70.5L17.5 68.5L16.5 68.5L16.5 70.5" />
<path style="fill:#F6C295;fill-opacity:1" d="M118.5,70.5L119.5 70.5L119.5 68.5L118.5 68.5L118.5 70.5" />
<path style="fill:#F6C696;fill-opacity:1" d="M119.5,69.5L120.5 69.5L120.5 68.5L119.5 68.5L119.5 69.5" />
<path style="fill:#F6C496;fill-opacity:1" d="M119.5,72.5L120.5 72.5L120.5 69.5L119.5 69.5L119.5 72.5" />
<path style="fill:#F6C696;fill-opacity:1" d="M15.5,71.5L16.5 71.5L16.5 70.5L15.5 70.5L15.5 71.5" />
<path style="fill:#F6C496;fill-opacity:1" d="M16.5,71.5L17.5 71.5L17.5 70.5L16.5 70.5L16.5 71.5" />
<path style="fill:#F6C696;fill-opacity:1" d="M118.5,71.5L119.5 71.5L119.5 70.5L118.5 70.5L118.5 71.5" />
<path style="fill:#F6C295;fill-opacity:1" d="M15.5,76.5L16.5 76.5L16.5 74.5L17.5 74.5L17.5 73.5L16.5 73.5L16.5 71.5L15.5 71.5L15.5 76.5" />
<path style="fill:#F6C696;fill-opacity:1" d="M16.5,73.5L17.5 73.5L17.5 71.5L16.5 71.5L16.5 73.5" />
<path style="fill:#F6C295;fill-opacity:1" d="M118.5,76.5L119.5 76.5L119.5 74.5L120.5 74.5L120.5 73.5L119.5 73.5L119.5 71.5L118.5 71.5L118.5 76.5" />
<path style="fill:#F6C696;fill-opacity:1" d="M119.5,73.5L120.5 73.5L120.5 72.5L119.5 72.5L119.5 73.5" />
<path style="fill:#F4C392;fill-opacity:1" d="M16.5,76.5L17.5 76.5L17.5 74.5L16.5 74.5L16.5 76.5" />
<path style="fill:#F4C392;fill-opacity:1" d="M119.5,76.5L120.5 76.5L120.5 74.5L119.5 74.5L119.5 76.5" />
<path style="fill:#F6C696;fill-opacity:1" d="M15.5,77.5L16.5 77.5L16.5 76.5L15.5 76.5L15.5 77.5" />
<path style="fill:#F6C295;fill-opacity:1" d="M16.5,77.5L17.5 77.5L17.5 76.5L16.5 76.5L16.5 77.5" />
<path style="fill:#F6C696;fill-opacity:1" d="M118.5,77.5L119.5 77.5L119.5 76.5L118.5 76.5L118.5 77.5" />
<path style="fill:#F6C295;fill-opacity:1" d="M119.5,77.5L120.5 77.5L120.5 76.5L119.5 76.5L119.5 77.5" />
<path style="fill:#F4C392;fill-opacity:1" d="M15.5,78.5L16.5 78.5L16.5 77.5L15.5 77.5L15.5 78.5" />
<path style="fill:#F6C392;fill-opacity:1" d="M16.5,79.5L17.5 79.5L17.5 77.5L16.5 77.5L16.5 79.5" />
<path style="fill:#F4C392;fill-opacity:1" d="M118.5,78.5L119.5 78.5L119.5 77.5L118.5 77.5L118.5 78.5" />
<path style="fill:#F6C392;fill-opacity:1" d="M119.5,79.5L120.5 79.5L120.5 77.5L119.5 77.5L119.5 79.5" />
<path style="fill:#F6C496;fill-opacity:1" d="M15.5,79.5L16.5 79.5L16.5 78.5L15.5 78.5L15.5 79.5" />
<path style="fill:#F6C696;fill-opacity:1" d="M118.5,79.5L119.5 79.5L119.5 78.5L118.5 78.5L118.5 79.5" />
<path style="fill:#F6C295;fill-opacity:1" d="M15.5,80.5L16.5 80.5L16.5 79.5L15.5 79.5L15.5 80.5" />
<path style="fill:#F4C392;fill-opacity:1" d="M16.5,80.5L17.5 80.5L17.5 79.5L16.5 79.5L16.5 80.5" />
<path style="fill:#F6C295;fill-opacity:1" d="M118.5,80.5L119.5 80.5L119.5 79.5L118.5 79.5L118.5 80.5" />
<path style="fill:#F4C392;fill-opacity:1" d="M119.5,80.5L120.5 80.5L120.5 79.5L119.5 79.5L119.5 80.5" />
<path style="fill:#F6C392;fill-opacity:1" d="M15.5,81.5L16.5 81.5L16.5 80.5L15.5 80.5L15.5 81.5" />
<path style="fill:#F6C295;fill-opacity:1" d="M16.5,81.5L17.5 81.5L17.5 80.5L16.5 80.5L16.5 81.5" />
<path style="fill:#F6C392;fill-opacity:1" d="M118.5,81.5L119.5 81.5L119.5 80.5L118.5 80.5L118.5 81.5" />
<path style="fill:#F6C295;fill-opacity:1" d="M119.5,81.5L120.5 81.5L120.5 80.5L119.5 80.5L119.5 81.5" />
<path style="fill:#F6C295;fill-opacity:1" d="M15.5,83.5L16.5 83.5L16.5 81.5L15.5 81.5L15.5 83.5" />
<path style="fill:#F6C496;fill-opacity:1" d="M16.5,84.5L17.5 84.5L17.5 81.5L16.5 81.5L16.5 84.5" />
<path style="fill:#F6C295;fill-opacity:1" d="M118.5,83.5L119.5 83.5L119.5 81.5L118.5 81.5L118.5 83.5" />
<path style="fill:#F6C696;fill-opacity:1" d="M119.5,82.5L120.5 82.5L120.5 81.5L119.5 81.5L119.5 82.5" />
<path style="fill:#F6C496;fill-opacity:1" d="M119.5,83.5L118.5 83.5L118.5 84.5L120.5 84.5L120.5 82.5L119.5 82.5L119.5 83.5" />
<path style="fill:#F6C696;fill-opacity:1" d="M15.5,84.5L16.5 84.5L16.5 83.5L15.5 83.5L15.5 84.5" />
<path style="fill:#F6C295;fill-opacity:1" d="M15.5,89.5L16.5 89.5L16.5 87.5L17.5 87.5L17.5 86.5L16.5 86.5L16.5 84.5L15.5 84.5L15.5 89.5" />
<path style="fill:#F6C696;fill-opacity:1" d="M16.5,86.5L17.5 86.5L17.5 84.5L16.5 84.5L16.5 86.5" />
<path style="fill:#F6C295;fill-opacity:1" d="M118.5,89.5L119.5 89.5L119.5 87.5L120.5 87.5L120.5 86.5L119.5 86.5L119.5 84.5L118.5 84.5L118.5 89.5" />
<path style="fill:#F6C696;fill-opacity:1" d="M119.5,86.5L120.5 86.5L120.5 84.5L119.5 84.5L119.5 86.5" />
<path style="fill:#42392E;fill-opacity:1" d="M80.5,86.5L81.5 86.5L81.5 85.5L80.5 85.5L80.5 86.5" />
<path style="fill:#F4C392;fill-opacity:1" d="M16.5,89.5L17.5 89.5L17.5 87.5L16.5 87.5L16.5 89.5" />
<path style="fill:#42392E;fill-opacity:1" d="M79.5,88.5L81.5 88.5L81.5 87.5L79.5 87.5L79.5 88.5" />
<path style="fill:#F4C392;fill-opacity:1" d="M119.5,89.5L120.5 89.5L120.5 87.5L119.5 87.5L119.5 89.5" />
<path style="fill:#42392E;fill-opacity:1" d="M76.5,89.5L77.5 89.5L77.5 88.5L76.5 88.5L76.5 89.5" />
<path style="fill:#F6C496;fill-opacity:1" d="M15.5,90.5L16.5 90.5L16.5 89.5L15.5 89.5L15.5 90.5" />
<path style="fill:#F6C295;fill-opacity:1" d="M16.5,90.5L17.5 90.5L17.5 89.5L16.5 89.5L16.5 90.5" />
<path style="fill:#42392E;fill-opacity:1" d="M81.5,90.5L82.5 90.5L82.5 89.5L81.5 89.5L81.5 90.5" />
<path style="fill:#F6C496;fill-opacity:1" d="M118.5,90.5L119.5 90.5L119.5 89.5L118.5 89.5L118.5 90.5" />
<path style="fill:#F6C295;fill-opacity:1" d="M119.5,90.5L120.5 90.5L120.5 89.5L119.5 89.5L119.5 90.5" />
<path style="fill:#F4C392;fill-opacity:1" d="M15.5,91.5L16.5 91.5L16.5 90.5L15.5 90.5L15.5 91.5" />
<path style="fill:#F6C392;fill-opacity:1" d="M16.5,92.5L17.5 92.5L17.5 90.5L16.5 90.5L16.5 92.5" />
<path style="fill:#F4C392;fill-opacity:1" d="M118.5,91.5L119.5 91.5L119.5 90.5L118.5 90.5L118.5 91.5" />
<path style="fill:#F6C392;fill-opacity:1" d="M119.5,92.5L120.5 92.5L120.5 90.5L119.5 90.5L119.5 92.5" />
<path style="fill:#F6C696;fill-opacity:1" d="M15.5,92.5L16.5 92.5L16.5 91.5L15.5 91.5L15.5 92.5" />
<path style="fill:#F6C696;fill-opacity:1" d="M118.5,92.5L119.5 92.5L119.5 91.5L118.5 91.5L118.5 92.5" />
<path style="fill:#F6C295;fill-opacity:1" d="M15.5,93.5L16.5 93.5L16.5 92.5L15.5 92.5L15.5 93.5" />
<path style="fill:#F4C392;fill-opacity:1" d="M16.5,93.5L17.5 93.5L17.5 92.5L16.5 92.5L16.5 93.5" />
<path style="fill:#42392E;fill-opacity:1" d="M83.5,93.5L84.5 93.5L84.5 92.5L83.5 92.5L83.5 93.5" />
<path style="fill:#F6C295;fill-opacity:1" d="M118.5,93.5L119.5 93.5L119.5 92.5L118.5 92.5L118.5 93.5" />
<path style="fill:#F4C392;fill-opacity:1" d="M119.5,93.5L120.5 93.5L120.5 92.5L119.5 92.5L119.5 93.5" />
<path style="fill:#F6C392;fill-opacity:1" d="M15.5,94.5L16.5 94.5L16.5 93.5L15.5 93.5L15.5 94.5" />
<path style="fill:#F6C295;fill-opacity:1" d="M16.5,94.5L15.5 94.5L15.5 95.5L17.5 95.5L17.5 93.5L16.5 93.5L16.5 94.5" />
<path style="fill:#42392E;fill-opacity:1" d="M68.5,95.5L69.5 95.5L69.5 93.5L68.5 93.5L68.5 95.5" />
<path style="fill:#F6C392;fill-opacity:1" d="M118.5,94.5L119.5 94.5L119.5 93.5L118.5 93.5L118.5 94.5" />
<path style="fill:#F6C295;fill-opacity:1" d="M119.5,94.5L118.5 94.5L118.5 95.5L120.5 95.5L120.5 93.5L119.5 93.5L119.5 94.5" />
<path style="fill:#F6C496;fill-opacity:1" d="M15.5,96.5L16.5 96.5L16.5 95.5L15.5 95.5L15.5 96.5" />
<path style="fill:#F6C392;fill-opacity:1" d="M16.5,96.5L17.5 96.5L17.5 95.5L16.5 95.5L16.5 96.5" />
<path style="fill:#F6C496;fill-opacity:1" d="M118.5,96.5L119.5 96.5L119.5 95.5L118.5 95.5L118.5 96.5" />
<path style="fill:#F6C392;fill-opacity:1" d="M119.5,96.5L120.5 96.5L120.5 95.5L119.5 95.5L119.5 96.5" />
<path style="fill:#F6C295;fill-opacity:1" d="M15.5,97.5L16.5 97.5L16.5 98.5L17.5 98.5L17.5 96.5L15.5 96.5L15.5 97.5" />
<path style="fill:#42392E;fill-opacity:1" d="M70.5,97.5L71.5 97.5L71.5 96.5L70.5 96.5L70.5 97.5" />
<path style="fill:#42392E;fill-opacity:1" d="M73.5,97.5L74.5 97.5L74.5 96.5L73.5 96.5L73.5 97.5" />
<path style="fill:#F6C295;fill-opacity:1" d="M118.5,97.5L119.5 97.5L119.5 98.5L120.5 98.5L120.5 96.5L118.5 96.5L118.5 97.5" />
<path style="fill:#F6C496;fill-opacity:1" d="M15.5,98.5L16.5 98.5L16.5 97.5L15.5 97.5L15.5 98.5" />
<path style="fill:#F6C496;fill-opacity:1" d="M118.5,98.5L119.5 98.5L119.5 97.5L118.5 97.5L118.5 98.5" />
<path style="fill:#F6C392;fill-opacity:1" d="M15.5,99.5L16.5 99.5L16.5 98.5L15.5 98.5L15.5 99.5" />
<path style="fill:#F4C392;fill-opacity:1" d="M16.5,99.5L17.5 99.5L17.5 98.5L16.5 98.5L16.5 99.5" />
<path style="fill:#F6C392;fill-opacity:1" d="M118.5,99.5L119.5 99.5L119.5 98.5L118.5 98.5L118.5 99.5" />
<path style="fill:#F4C392;fill-opacity:1" d="M119.5,99.5L120.5 99.5L120.5 98.5L119.5 98.5L119.5 99.5" />
<path style="fill:#F6C295;fill-opacity:1" d="M15.5,100.5L16.5 100.5L16.5 99.5L15.5 99.5L15.5 100.5" />
<path style="fill:#F6C696;fill-opacity:1" d="M16.5,100.5L17.5 100.5L17.5 99.5L16.5 99.5L16.5 100.5" />
<path style="fill:#42392E;fill-opacity:1" d="M78.5,100.5L79.5 100.5L79.5 99.5L78.5 99.5L78.5 100.5" />
<path style="fill:#F6C295;fill-opacity:1" d="M118.5,100.5L119.5 100.5L119.5 99.5L118.5 99.5L118.5 100.5" />
<path style="fill:#F6C496;fill-opacity:1" d="M119.5,100.5L120.5 100.5L120.5 99.5L119.5 99.5L119.5 100.5" />
<path style="fill:#F6C496;fill-opacity:1" d="M15.5,101.5L16.5 101.5L16.5 100.5L15.5 100.5L15.5 101.5" />
<path style="fill:#F6C295;fill-opacity:1" d="M16.5,101.5L17.5 101.5L17.5 100.5L16.5 100.5L16.5 101.5" />
<path style="fill:#42392E;fill-opacity:1" d="M66.5,101.5L67.5 101.5L67.5 100.5L66.5 100.5L66.5 101.5" />
<path style="fill:#42392E;fill-opacity:1" d="M88.5,101.5L89.5 101.5L89.5 100.5L88.5 100.5L88.5 101.5" />
<path style="fill:#F6C496;fill-opacity:1" d="M118.5,101.5L119.5 101.5L119.5 100.5L118.5 100.5L118.5 101.5" />
<path style="fill:#F6C295;fill-opacity:1" d="M119.5,101.5L120.5 101.5L120.5 100.5L119.5 100.5L119.5 101.5" />
<path style="fill:#946941;fill-opacity:1" d="M15.5,103.5L17.5 103.5L17.5 102.5L16.5 102.5L16.5 101.5L15.5 101.5L15.5 103.5" />
<path style="fill:#966A41;fill-opacity:1" d="M16.5,102.5L17.5 102.5L17.5 101.5L16.5 101.5L16.5 102.5" />
<path style="fill:#5A4532;fill-opacity:1" d="M118.5,103.5L119.5 103.5L119.5 101.5L118.5 101.5L118.5 103.5" />
<path style="fill:#5A4632;fill-opacity:1" d="M119.5,103.5L120.5 103.5L120.5 101.5L119.5 101.5L119.5 103.5" />
<path style="fill:#383028;fill-opacity:1" d="M19.5,103.5L20.5 103.5L20.5 102.5L19.5 102.5L19.5 103.5" />
<path style="fill:#42392E;fill-opacity:1" d="M73.5,103.5L74.5 103.5L74.5 102.5L73.5 102.5L73.5 103.5" />
<path style="fill:#000000;fill-opacity:1" d="M15.5,105.5L17.5 105.5L17.5 103.5L15.5 103.5L15.5 105.5" />
<path style="fill:#000000;fill-opacity:1" d="M118.5,105.5L120.5 105.5L120.5 103.5L118.5 103.5L118.5 105.5" />
<path style="fill:#42392E;fill-opacity:1" d="M58.5,105.5L59.5 105.5L59.5 104.5L58.5 104.5L58.5 105.5" />
<path style="fill:#450C00;fill-opacity:1" d="M15.5,107.5L17.5 107.5L17.5 106.5L16.5 106.5L16.5 105.5L15.5 105.5L15.5 107.5" />
<path style="fill:#440B00;fill-opacity:1" d="M16.5,106.5L17.5 106.5L17.5 105.5L16.5 105.5L16.5 106.5" />
<path style="fill:#42392E;fill-opacity:1" d="M51.5,106.5L52.5 106.5L52.5 105.5L51.5 105.5L51.5 106.5" />
<path style="fill:#42392E;fill-opacity:1" d="M75.5,106.5L76.5 106.5L76.5 105.5L75.5 105.5L75.5 106.5" />
<path style="fill:#42392E;fill-opacity:1" d="M86.5,106.5L87.5 106.5L87.5 105.5L86.5 105.5L86.5 106.5" />
<path style="fill:#440B00;fill-opacity:1" d="M118.5,107.5L119.5 107.5L119.5 105.5L118.5 105.5L118.5 107.5" />
<path style="fill:#450C00;fill-opacity:1" d="M119.5,107.5L120.5 107.5L120.5 105.5L119.5 105.5L119.5 107.5" />
<path style="fill:#42392E;fill-opacity:1" d="M58.5,107.5L59.5 107.5L59.5 106.5L58.5 106.5L58.5 107.5" />
<path style="fill:#42392E;fill-opacity:1" d="M83.5,107.5L84.5 107.5L84.5 106.5L83.5 106.5L83.5 107.5" />
<path style="fill:#2B241C;fill-opacity:1" d="M116.5,107.5L117.5 107.5L117.5 106.5L116.5 106.5L116.5 107.5" />
<path style="fill:#531F00;fill-opacity:1" d="M15.5,109.5L17.5 109.5L17.5 107.5L15.5 107.5L15.5 109.5" />
<path style="fill:#383028;fill-opacity:1" d="M21.5,108.5L22.5 108.5L22.5 107.5L21.5 107.5L21.5 108.5" />
<path style="fill:#42392E;fill-opacity:1" d="M53.5,108.5L54.5 108.5L54.5 107.5L53.5 107.5L53.5 108.5" />
<path style="fill:#42392E;fill-opacity:1" d="M66.5,108.5L67.5 108.5L67.5 107.5L66.5 107.5L66.5 108.5" />
<path style="fill:#2B241D;fill-opacity:1" d="M116.5,108.5L117.5 108.5L117.5 107.5L116.5 107.5L116.5 108.5" />
<path style="fill:#2B241C;fill-opacity:1" d="M117.5,108.5L118.5 108.5L118.5 107.5L117.5 107.5L117.5 108.5" />
<path style="fill:#531F00;fill-opacity:1" d="M118.5,109.5L120.5 109.5L120.5 107.5L118.5 107.5L118.5 109.5" />
<path style="fill:#42392E;fill-opacity:1" d="M56.5,110.5L57.5 110.5L57.5 108.5L56.5 108.5L56.5 110.5" />
<path style="fill:#42392E;fill-opacity:1" d="M75.5,109.5L74.5 109.5L74.5 110.5L76.5 110.5L76.5 108.5L75.5 108.5L75.5 109.5" />
<path style="fill:#2B241C;fill-opacity:1" d="M116.5,109.5L117.5 109.5L117.5 108.5L116.5 108.5L116.5 109.5" />
<path style="fill:#2B241D;fill-opacity:1" d="M117.5,109.5L115.5 109.5L115.5 111.5L118.5 111.5L118.5 108.5L117.5 108.5L117.5 109.5" />
<path style="fill:#A64800;fill-opacity:1" d="M15.5,111.5L16.5 111.5L16.5 110.5L17.5 110.5L17.5 109.5L15.5 109.5L15.5 111.5" />
<path style="fill:#2B241C;fill-opacity:1" d="M20.5,110.5L22.5 110.5L22.5 111.5L21.5 111.5L21.5 112.5L23.5 112.5L23.5 109.5L20.5 109.5L20.5 110.5" />
<path style="fill:#42392E;fill-opacity:1" d="M70.5,110.5L71.5 110.5L71.5 109.5L70.5 109.5L70.5 110.5" />
<path style="fill:#42392E;fill-opacity:1" d="M91.5,110.5L92.5 110.5L92.5 109.5L91.5 109.5L91.5 110.5" />
<path style="fill:#2B241C;fill-opacity:1" d="M112.5,110.5L113.5 110.5L113.5 109.5L112.5 109.5L112.5 110.5" />
<path style="fill:#2B241D;fill-opacity:1" d="M113.5,110.5L112.5 110.5L112.5 112.5L114.5 112.5L114.5 109.5L113.5 109.5L113.5 110.5" />
<path style="fill:#2B241C;fill-opacity:1" d="M114.5,110.5L115.5 110.5L115.5 109.5L114.5 109.5L114.5 110.5" />
<path style="fill:#A74A00;fill-opacity:1" d="M118.5,110.5L119.5 110.5L119.5 111.5L120.5 111.5L120.5 109.5L118.5 109.5L118.5 110.5" />
<path style="fill:#A74A00;fill-opacity:1" d="M16.5,111.5L17.5 111.5L17.5 110.5L16.5 110.5L16.5 111.5" />
<path style="fill:#2B231C;fill-opacity:1" d="M19.5,111.5L20.5 111.5L20.5 110.5L19.5 110.5L19.5 111.5" />
<path style="fill:#2B241D;fill-opacity:1" d="M20.5,111.5L22.5 111.5L22.5 110.5L20.5 110.5L20.5 111.5" />
<path style="fill:#42392E;fill-opacity:1" d="M49.5,111.5L50.5 111.5L50.5 110.5L49.5 110.5L49.5 111.5" />
<path style="fill:#42392E;fill-opacity:1" d="M64.5,111.5L65.5 111.5L65.5 110.5L64.5 110.5L64.5 111.5" />
<path style="fill:#42392E;fill-opacity:1" d="M76.5,111.5L77.5 111.5L77.5 110.5L76.5 110.5L76.5 111.5" />
<path style="fill:#383028;fill-opacity:1" d="M111.5,111.5L112.5 111.5L112.5 110.5L111.5 110.5L111.5 111.5" />
<path style="fill:#2B231C;fill-opacity:1" d="M114.5,111.5L115.5 111.5L115.5 110.5L114.5 110.5L114.5 111.5" />
<path style="fill:#A64800;fill-opacity:1" d="M118.5,111.5L119.5 111.5L119.5 110.5L118.5 110.5L118.5 111.5" />
<path style="fill:#FF8500;fill-opacity:1" d="M15.5,113.5L17.5 113.5L17.5 112.5L16.5 112.5L16.5 111.5L15.5 111.5L15.5 113.5" />
<path style="fill:#FF8600;fill-opacity:1" d="M16.5,112.5L17.5 112.5L17.5 111.5L16.5 111.5L16.5 112.5" />
<path style="fill:#A74A00;fill-opacity:1" d="M17.5,113.5L18.5 113.5L18.5 112.5L19.5 112.5L19.5 111.5L17.5 111.5L17.5 113.5" />
<path style="fill:#531F00;fill-opacity:1" d="M19.5,113.5L21.5 113.5L21.5 111.5L19.5 111.5L19.5 113.5" />
<path style="fill:#383028;fill-opacity:1" d="M30.5,112.5L31.5 112.5L31.5 111.5L30.5 111.5L30.5 112.5" />
<path style="fill:#383028;fill-opacity:1" d="M33.5,113.5L37.5 113.5L37.5 112.5L38.5 112.5L38.5 113.5L99.5 113.5L99.5 112.5L100.5 112.5L100.5 113.5L101.5 113.5L101.5 112.5L103.5 112.5L103.5 111.5L33.5 111.5L33.5 113.5" />
<path style="fill:#531F00;fill-opacity:1" d="M114.5,113.5L116.5 113.5L116.5 111.5L114.5 111.5L114.5 113.5" />
<path style="fill:#A74A00;fill-opacity:1" d="M116.5,112.5L117.5 112.5L117.5 111.5L116.5 111.5L116.5 112.5" />
<path style="fill:#A64800;fill-opacity:1" d="M117.5,112.5L118.5 112.5L118.5 111.5L117.5 111.5L117.5 112.5" />
<path style="fill:#FF8500;fill-opacity:1" d="M118.5,112.5L119.5 112.5L119.5 113.5L120.5 113.5L120.5 111.5L118.5 111.5L118.5 112.5" />
<path style="fill:#A64800;fill-opacity:1" d="M18.5,113.5L19.5 113.5L19.5 112.5L18.5 112.5L18.5 113.5" />
<path style="fill:#2B241D;fill-opacity:1" d="M21.5,113.5L22.5 113.5L22.5 115.5L23.5 115.5L23.5 114.5L24.5 114.5L24.5 115.5L25.5 115.5L25.5 113.5L23.5 113.5L23.5 112.5L21.5 112.5L21.5 113.5" />
<path style="fill:#383028;fill-opacity:1" d="M27.5,113.5L28.5 113.5L28.5 112.5L27.5 112.5L27.5 113.5" />
<path style="fill:#373028;fill-opacity:1" d="M37.5,113.5L38.5 113.5L38.5 112.5L37.5 112.5L37.5 113.5" />
<path style="fill:#373028;fill-opacity:1" d="M99.5,113.5L100.5 113.5L100.5 112.5L99.5 112.5L99.5 113.5" />
<path style="fill:#383028;fill-opacity:1" d="M104.5,113.5L105.5 113.5L105.5 112.5L104.5 112.5L104.5 113.5" />
<path style="fill:#383028;fill-opacity:1" d="M106.5,113.5L107.5 113.5L107.5 112.5L106.5 112.5L106.5 113.5" />
<path style="fill:#2B241C;fill-opacity:1" d="M112.5,113.5L114.5 113.5L114.5 112.5L112.5 112.5L112.5 113.5" />
<path style="fill:#A64800;fill-opacity:1" d="M116.5,113.5L117.5 113.5L117.5 112.5L116.5 112.5L116.5 113.5" />
<path style="fill:#A74A00;fill-opacity:1" d="M117.5,113.5L118.5 113.5L118.5 112.5L117.5 112.5L117.5 113.5" />
<path style="fill:#FF8600;fill-opacity:1" d="M118.5,113.5L119.5 113.5L119.5 112.5L118.5 112.5L118.5 113.5" />
<path style="fill:#FFDD00;fill-opacity:1" d="M15.5,114.5L16.5 114.5L16.5 113.5L15.5 113.5L15.5 114.5" />
<path style="fill:#FFDC00;fill-opacity:1" d="M16.5,114.5L15.5 114.5L15.5 115.5L17.5 115.5L17.5 113.5L16.5 113.5L16.5 114.5" />
<path style="fill:#2B241C;fill-opacity:1" d="M17.5,115.5L18.5 115.5L18.5 113.5L17.5 113.5L17.5 115.5" />
<path style="fill:#2B241D;fill-opacity:1" d="M18.5,115.5L19.5 115.5L19.5 113.5L18.5 113.5L18.5 115.5" />
<path style="fill:#A74A00;fill-opacity:1" d="M19.5,115.5L20.5 115.5L20.5 114.5L21.5 114.5L21.5 113.5L19.5 113.5L19.5 115.5" />
<path style="fill:#2B241C;fill-opacity:1" d="M21.5,115.5L22.5 115.5L22.5 113.5L21.5 113.5L21.5 115.5" />
<path style="fill:#2B241C;fill-opacity:1" d="M25.5,115.5L26.5 115.5L26.5 114.5L27.5 114.5L27.5 113.5L25.5 113.5L25.5 115.5" />
<path style="fill:#2B231C;fill-opacity:1" d="M27.5,114.5L28.5 114.5L28.5 113.5L27.5 113.5L27.5 114.5" />
<path style="fill:#2B241D;fill-opacity:1" d="M28.5,115.5L42.5 115.5L42.5 114.5L48.5 114.5L48.5 113.5L28.5 113.5L28.5 115.5" />
<path style="fill:#2C241D;fill-opacity:1" d="M48.5,114.5L42.5 114.5L42.5 115.5L54.5 115.5L54.5 114.5L55.5 114.5L55.5 115.5L65.5 115.5L65.5 113.5L64.5 113.5L64.5 114.5L61.5 114.5L61.5 113.5L59.5 113.5L59.5 114.5L58.5 114.5L58.5 113.5L52.5 113.5L52.5 114.5L51.5 114.5L51.5 113.5L48.5 113.5L48.5 114.5" />
<path style="fill:#2B241D;fill-opacity:1" d="M51.5,114.5L52.5 114.5L52.5 113.5L51.5 113.5L51.5 114.5" />
<path style="fill:#2B241D;fill-opacity:1" d="M58.5,114.5L59.5 114.5L59.5 113.5L58.5 113.5L58.5 114.5" />
<path style="fill:#2B241D;fill-opacity:1" d="M61.5,114.5L64.5 114.5L64.5 113.5L61.5 113.5L61.5 114.5" />
<path style="fill:#2B241D;fill-opacity:1" d="M65.5,115.5L66.5 115.5L66.5 114.5L67.5 114.5L67.5 113.5L65.5 113.5L65.5 115.5" />
<path style="fill:#2C241D;fill-opacity:1" d="M67.5,114.5L66.5 114.5L66.5 115.5L72.5 115.5L72.5 114.5L73.5 114.5L73.5 115.5L75.5 115.5L75.5 113.5L70.5 113.5L70.5 114.5L69.5 114.5L69.5 113.5L67.5 113.5L67.5 114.5" />
<path style="fill:#2B241D;fill-opacity:1" d="M69.5,114.5L70.5 114.5L70.5 113.5L69.5 113.5L69.5 114.5" />
<path style="fill:#2B241D;fill-opacity:1" d="M75.5,115.5L76.5 115.5L76.5 113.5L75.5 113.5L75.5 115.5" />
<path style="fill:#2C241D;fill-opacity:1" d="M76.5,115.5L77.5 115.5L77.5 114.5L78.5 114.5L78.5 115.5L87.5 115.5L87.5 113.5L86.5 113.5L86.5 114.5L85.5 114.5L85.5 113.5L76.5 113.5L76.5 115.5" />
<path style="fill:#2B241D;fill-opacity:1" d="M85.5,114.5L86.5 114.5L86.5 113.5L85.5 113.5L85.5 114.5" />
<path style="fill:#2B241D;fill-opacity:1" d="M87.5,115.5L88.5 115.5L88.5 113.5L87.5 113.5L87.5 115.5" />
<path style="fill:#2C241D;fill-opacity:1" d="M88.5,115.5L89.5 115.5L89.5 113.5L88.5 113.5L88.5 115.5" />
<path style="fill:#2B241D;fill-opacity:1" d="M89.5,115.5L90.5 115.5L90.5 114.5L91.5 114.5L91.5 113.5L89.5 113.5L89.5 115.5" />
<path style="fill:#2C241D;fill-opacity:1" d="M91.5,114.5L90.5 114.5L90.5 115.5L92.5 115.5L92.5 113.5L91.5 113.5L91.5 114.5" />
<path style="fill:#2B241D;fill-opacity:1" d="M92.5,115.5L94.5 115.5L94.5 114.5L95.5 114.5L95.5 113.5L92.5 113.5L92.5 115.5" />
<path style="fill:#2C241D;fill-opacity:1" d="M95.5,114.5L97.5 114.5L97.5 113.5L95.5 113.5L95.5 114.5" />
<path style="fill:#2B241D;fill-opacity:1" d="M97.5,114.5L95.5 114.5L95.5 115.5L111.5 115.5L111.5 113.5L97.5 113.5L97.5 114.5" />
<path style="fill:#2B241C;fill-opacity:1" d="M111.5,115.5L112.5 115.5L112.5 113.5L111.5 113.5L111.5 115.5" />
<path style="fill:#2B241D;fill-opacity:1" d="M112.5,115.5L114.5 115.5L114.5 114.5L113.5 114.5L113.5 113.5L112.5 113.5L112.5 115.5" />
<path style="fill:#2B231C;fill-opacity:1" d="M113.5,114.5L114.5 114.5L114.5 113.5L113.5 113.5L113.5 114.5" />
<path style="fill:#A74A00;fill-opacity:1" d="M114.5,114.5L115.5 114.5L115.5 113.5L114.5 113.5L114.5 114.5" />
<path style="fill:#A94A00;fill-opacity:1" d="M115.5,114.5L116.5 114.5L116.5 113.5L115.5 113.5L115.5 114.5" />
<path style="fill:#2B241D;fill-opacity:1" d="M116.5,115.5L118.5 115.5L118.5 114.5L117.5 114.5L117.5 113.5L116.5 113.5L116.5 115.5" />
<path style="fill:#2B241C;fill-opacity:1" d="M117.5,114.5L118.5 114.5L118.5 113.5L117.5 113.5L117.5 114.5" />
<path style="fill:#FFDC00;fill-opacity:1" d="M118.5,115.5L120.5 115.5L120.5 113.5L118.5 113.5L118.5 115.5" />
<path style="fill:#A64800;fill-opacity:1" d="M20.5,115.5L21.5 115.5L21.5 114.5L20.5 114.5L20.5 115.5" />
<path style="fill:#2B241C;fill-opacity:1" d="M23.5,115.5L24.5 115.5L24.5 114.5L23.5 114.5L23.5 115.5" />
<path style="fill:#2B241D;fill-opacity:1" d="M26.5,115.5L27.5 115.5L27.5 114.5L26.5 114.5L26.5 115.5" />
<path style="fill:#2B241C;fill-opacity:1" d="M27.5,115.5L28.5 115.5L28.5 114.5L27.5 114.5L27.5 115.5" />
<path style="fill:#2B241D;fill-opacity:1" d="M54.5,115.5L55.5 115.5L55.5 114.5L54.5 114.5L54.5 115.5" />
<path style="fill:#2B241D;fill-opacity:1" d="M72.5,115.5L73.5 115.5L73.5 114.5L72.5 114.5L72.5 115.5" />
<path style="fill:#2B241D;fill-opacity:1" d="M77.5,115.5L78.5 115.5L78.5 114.5L77.5 114.5L77.5 115.5" />
<path style="fill:#2C241D;fill-opacity:1" d="M94.5,115.5L95.5 115.5L95.5 114.5L94.5 114.5L94.5 115.5" />
<path style="fill:#A64800;fill-opacity:1" d="M114.5,115.5L116.5 115.5L116.5 114.5L114.5 114.5L114.5 115.5" />
<path style="fill:#FFFFFF;fill-opacity:1" d="M15.5,117.5L17.5 117.5L17.5 115.5L15.5 115.5L15.5 117.5" />
<path style="fill:#FFDD00;fill-opacity:1" d="M17.5,116.5L18.5 116.5L18.5 115.5L17.5 115.5L17.5 116.5" />
<path style="fill:#FFDC00;fill-opacity:1" d="M18.5,116.5L19.5 116.5L19.5 115.5L18.5 115.5L18.5 116.5" />
<path style="fill:#FF8600;fill-opacity:1" d="M19.5,116.5L20.5 116.5L20.5 115.5L19.5 115.5L19.5 116.5" />
<path style="fill:#FF8500;fill-opacity:1" d="M20.5,116.5L19.5 116.5L19.5 117.5L21.5 117.5L21.5 115.5L20.5 115.5L20.5 116.5" />
<path style="fill:#A74A00;fill-opacity:1" d="M21.5,117.5L23.5 117.5L23.5 116.5L22.5 116.5L22.5 115.5L21.5 115.5L21.5 117.5" />
<path style="fill:#A64800;fill-opacity:1" d="M22.5,116.5L23.5 116.5L23.5 115.5L22.5 115.5L22.5 116.5" />
<path style="fill:#531F00;fill-opacity:1" d="M23.5,117.5L25.5 117.5L25.5 115.5L23.5 115.5L23.5 117.5" />
<path style="fill:#450C00;fill-opacity:1" d="M25.5,116.5L27.5 116.5L27.5 115.5L25.5 115.5L25.5 116.5" />
<path style="fill:#000000;fill-opacity:1" d="M27.5,117.5L29.5 117.5L29.5 115.5L27.5 115.5L27.5 117.5" />
<path style="fill:#5A4632;fill-opacity:1" d="M29.5,116.5L30.5 116.5L30.5 115.5L29.5 115.5L29.5 116.5" />
<path style="fill:#5A4532;fill-opacity:1" d="M30.5,116.5L29.5 116.5L29.5 117.5L31.5 117.5L31.5 115.5L30.5 115.5L30.5 116.5" />
<path style="fill:#F6C496;fill-opacity:1" d="M31.5,116.5L36.5 116.5L36.5 115.5L31.5 115.5L31.5 116.5" />
<path style="fill:#F6C295;fill-opacity:1" d="M36.5,116.5L34.5 116.5L34.5 117.5L39.5 117.5L39.5 116.5L37.5 116.5L37.5 115.5L36.5 115.5L36.5 116.5" />
<path style="fill:#F4C392;fill-opacity:1" d="M37.5,116.5L39.5 116.5L39.5 115.5L37.5 115.5L37.5 116.5" />
<path style="fill:#F6C295;fill-opacity:1" d="M39.5,116.5L40.5 116.5L40.5 115.5L39.5 115.5L39.5 116.5" />
<path style="fill:#F6C392;fill-opacity:1" d="M40.5,116.5L42.5 116.5L42.5 115.5L40.5 115.5L40.5 116.5" />
<path style="fill:#F4C392;fill-opacity:1" d="M42.5,116.5L43.5 116.5L43.5 115.5L42.5 115.5L42.5 116.5" />
<path style="fill:#F6C295;fill-opacity:1" d="M43.5,116.5L44.5 116.5L44.5 117.5L45.5 117.5L45.5 115.5L43.5 115.5L43.5 116.5" />
<path style="fill:#F6C392;fill-opacity:1" d="M45.5,116.5L46.5 116.5L46.5 115.5L45.5 115.5L45.5 116.5" />
<path style="fill:#F6C295;fill-opacity:1" d="M46.5,117.5L47.5 117.5L47.5 116.5L48.5 116.5L48.5 115.5L46.5 115.5L46.5 117.5" />
<path style="fill:#F5C393;fill-opacity:1" d="M48.5,116.5L49.5 116.5L49.5 115.5L48.5 115.5L48.5 116.5" />
<path style="fill:#F6C696;fill-opacity:1" d="M49.5,116.5L50.5 116.5L50.5 115.5L49.5 115.5L49.5 116.5" />
<path style="fill:#F6C295;fill-opacity:1" d="M50.5,116.5L51.5 116.5L51.5 115.5L50.5 115.5L50.5 116.5" />
<path style="fill:#F6C496;fill-opacity:1" d="M51.5,116.5L53.5 116.5L53.5 115.5L51.5 115.5L51.5 116.5" />
<path style="fill:#F6C696;fill-opacity:1" d="M53.5,116.5L54.5 116.5L54.5 115.5L53.5 115.5L53.5 116.5" />
<path style="fill:#F6C496;fill-opacity:1" d="M54.5,116.5L56.5 116.5L56.5 115.5L54.5 115.5L54.5 116.5" />
<path style="fill:#F6C295;fill-opacity:1" d="M56.5,116.5L54.5 116.5L54.5 117.5L59.5 117.5L59.5 116.5L57.5 116.5L57.5 115.5L56.5 115.5L56.5 116.5" />
<path style="fill:#F5C392;fill-opacity:1" d="M57.5,116.5L58.5 116.5L58.5 115.5L57.5 115.5L57.5 116.5" />
<path style="fill:#F4C392;fill-opacity:1" d="M58.5,116.5L59.5 116.5L59.5 115.5L58.5 115.5L58.5 116.5" />
<path style="fill:#F6C295;fill-opacity:1" d="M59.5,116.5L60.5 116.5L60.5 115.5L59.5 115.5L59.5 116.5" />
<path style="fill:#F6C392;fill-opacity:1" d="M60.5,116.5L62.5 116.5L62.5 115.5L60.5 115.5L60.5 116.5" />
<path style="fill:#F4C392;fill-opacity:1" d="M62.5,116.5L63.5 116.5L63.5 115.5L62.5 115.5L62.5 116.5" />
<path style="fill:#F6C295;fill-opacity:1" d="M63.5,116.5L64.5 116.5L64.5 117.5L65.5 117.5L65.5 115.5L63.5 115.5L63.5 116.5" />
<path style="fill:#F6C392;fill-opacity:1" d="M65.5,116.5L66.5 116.5L66.5 115.5L65.5 115.5L65.5 116.5" />
<path style="fill:#F6C295;fill-opacity:1" d="M66.5,117.5L67.5 117.5L67.5 116.5L68.5 116.5L68.5 115.5L66.5 115.5L66.5 117.5" />
<path style="fill:#F4C392;fill-opacity:1" d="M68.5,116.5L69.5 116.5L69.5 115.5L68.5 115.5L68.5 116.5" />
<path style="fill:#F6C696;fill-opacity:1" d="M69.5,116.5L70.5 116.5L70.5 115.5L69.5 115.5L69.5 116.5" />
<path style="fill:#F6C295;fill-opacity:1" d="M70.5,116.5L71.5 116.5L71.5 115.5L70.5 115.5L70.5 116.5" />
<path style="fill:#F6C696;fill-opacity:1" d="M71.5,116.5L72.5 116.5L72.5 115.5L71.5 115.5L71.5 116.5" />
<path style="fill:#F6C496;fill-opacity:1" d="M72.5,116.5L73.5 116.5L73.5 117.5L74.5 117.5L74.5 115.5L72.5 115.5L72.5 116.5" />
<path style="fill:#F6C696;fill-opacity:1" d="M74.5,116.5L75.5 116.5L75.5 115.5L74.5 115.5L74.5 116.5" />
<path style="fill:#F6C496;fill-opacity:1" d="M75.5,116.5L76.5 116.5L76.5 115.5L75.5 115.5L75.5 116.5" />
<path style="fill:#F6C295;fill-opacity:1" d="M76.5,116.5L74.5 116.5L74.5 117.5L79.5 117.5L79.5 116.5L77.5 116.5L77.5 115.5L76.5 115.5L76.5 116.5" />
<path style="fill:#F5C392;fill-opacity:1" d="M77.5,116.5L78.5 116.5L78.5 115.5L77.5 115.5L77.5 116.5" />
<path style="fill:#F4C392;fill-opacity:1" d="M78.5,116.5L79.5 116.5L79.5 115.5L78.5 115.5L78.5 116.5" />
<path style="fill:#F6C295;fill-opacity:1" d="M79.5,116.5L80.5 116.5L80.5 115.5L79.5 115.5L79.5 116.5" />
<path style="fill:#F6C392;fill-opacity:1" d="M80.5,116.5L81.5 116.5L81.5 115.5L80.5 115.5L80.5 116.5" />
<path style="fill:#F6C393;fill-opacity:1" d="M81.5,116.5L82.5 116.5L82.5 115.5L81.5 115.5L81.5 116.5" />
<path style="fill:#F4C392;fill-opacity:1" d="M82.5,116.5L83.5 116.5L83.5 115.5L82.5 115.5L82.5 116.5" />
<path style="fill:#F6C295;fill-opacity:1" d="M83.5,116.5L84.5 116.5L84.5 115.5L83.5 115.5L83.5 116.5" />
<path style="fill:#F6C496;fill-opacity:1" d="M84.5,116.5L85.5 116.5L85.5 115.5L84.5 115.5L84.5 116.5" />
<path style="fill:#F6C696;fill-opacity:1" d="M85.5,116.5L88.5 116.5L88.5 115.5L85.5 115.5L85.5 116.5" />
<path style="fill:#F6C496;fill-opacity:1" d="M88.5,116.5L89.5 116.5L89.5 115.5L88.5 115.5L88.5 116.5" />
<path style="fill:#F6C295;fill-opacity:1" d="M89.5,116.5L87.5 116.5L87.5 117.5L92.5 117.5L92.5 116.5L90.5 116.5L90.5 115.5L89.5 115.5L89.5 116.5" />
<path style="fill:#F5C392;fill-opacity:1" d="M90.5,116.5L91.5 116.5L91.5 115.5L90.5 115.5L90.5 116.5" />
<path style="fill:#F4C392;fill-opacity:1" d="M91.5,116.5L92.5 116.5L92.5 115.5L91.5 115.5L91.5 116.5" />
<path style="fill:#F6C295;fill-opacity:1" d="M92.5,116.5L93.5 116.5L93.5 115.5L92.5 115.5L92.5 116.5" />
<path style="fill:#F6C392;fill-opacity:1" d="M93.5,116.5L95.5 116.5L95.5 115.5L93.5 115.5L93.5 116.5" />
<path style="fill:#F4C392;fill-opacity:1" d="M95.5,116.5L96.5 116.5L96.5 115.5L95.5 115.5L95.5 116.5" />
<path style="fill:#F6C295;fill-opacity:1" d="M96.5,116.5L97.5 116.5L97.5 117.5L98.5 117.5L98.5 115.5L96.5 115.5L96.5 116.5" />
<path style="fill:#F6C392;fill-opacity:1" d="M98.5,116.5L99.5 116.5L99.5 115.5L98.5 115.5L98.5 116.5" />
<path style="fill:#F6C295;fill-opacity:1" d="M99.5,117.5L100.5 117.5L100.5 116.5L101.5 116.5L101.5 115.5L99.5 115.5L99.5 117.5" />
<path style="fill:#F4C392;fill-opacity:1" d="M101.5,116.5L102.5 116.5L102.5 115.5L101.5 115.5L101.5 116.5" />
<path style="fill:#F6C496;fill-opacity:1" d="M102.5,116.5L103.5 116.5L103.5 115.5L102.5 115.5L102.5 116.5" />
<path style="fill:#F6C295;fill-opacity:1" d="M103.5,116.5L104.5 116.5L104.5 115.5L103.5 115.5L103.5 116.5" />
<path style="fill:#5A4532;fill-opacity:1" d="M104.5,117.5L106.5 117.5L106.5 115.5L104.5 115.5L104.5 117.5" />
<path style="fill:#000000;fill-opacity:1" d="M106.5,117.5L108.5 117.5L108.5 115.5L106.5 115.5L106.5 117.5" />
<path style="fill:#450C00;fill-opacity:1" d="M108.5,117.5L109.5 117.5L109.5 116.5L110.5 116.5L110.5 115.5L108.5 115.5L108.5 117.5" />
<path style="fill:#531F00;fill-opacity:1" d="M110.5,117.5L112.5 117.5L112.5 115.5L110.5 115.5L110.5 117.5" />
<path style="fill:#A74A00;fill-opacity:1" d="M112.5,117.5L113.5 117.5L113.5 115.5L112.5 115.5L112.5 117.5" />
<path style="fill:#A64800;fill-opacity:1" d="M113.5,116.5L114.5 116.5L114.5 115.5L113.5 115.5L113.5 116.5" />
<path style="fill:#FF8500;fill-opacity:1" d="M114.5,116.5L115.5 116.5L115.5 117.5L116.5 117.5L116.5 115.5L114.5 115.5L114.5 116.5" />
<path style="fill:#FFDC00;fill-opacity:1" d="M116.5,117.5L118.5 117.5L118.5 115.5L116.5 115.5L116.5 117.5" />
<path style="fill:#FFFFFF;fill-opacity:1" d="M118.5,117.5L120.5 117.5L120.5 115.5L118.5 115.5L118.5 117.5" />
<path style="fill:#FFDC00;fill-opacity:1" d="M17.5,117.5L18.5 117.5L18.5 116.5L17.5 116.5L17.5 117.5" />
<path style="fill:#FFDD00;fill-opacity:1" d="M18.5,117.5L19.5 117.5L19.5 116.5L18.5 116.5L18.5 117.5" />
<path style="fill:#440B00;fill-opacity:1" d="M25.5,117.5L27.5 117.5L27.5 116.5L25.5 116.5L25.5 117.5" />
<path style="fill:#F6C295;fill-opacity:1" d="M31.5,117.5L33.5 117.5L33.5 116.5L31.5 116.5L31.5 117.5" />
<path style="fill:#F6C696;fill-opacity:1" d="M33.5,117.5L34.5 117.5L34.5 116.5L33.5 116.5L33.5 117.5" />
<path style="fill:#F6C696;fill-opacity:1" d="M39.5,117.5L40.5 117.5L40.5 116.5L39.5 116.5L39.5 117.5" />
<path style="fill:#F4C392;fill-opacity:1" d="M40.5,117.5L41.5 117.5L41.5 116.5L40.5 116.5L40.5 117.5" />
<path style="fill:#F6C696;fill-opacity:1" d="M41.5,117.5L42.5 117.5L42.5 116.5L41.5 116.5L41.5 117.5" />
<path style="fill:#F6C295;fill-opacity:1" d="M42.5,117.5L43.5 117.5L43.5 116.5L42.5 116.5L42.5 117.5" />
<path style="fill:#F6C392;fill-opacity:1" d="M43.5,117.5L44.5 117.5L44.5 116.5L43.5 116.5L43.5 117.5" />
<path style="fill:#F6C496;fill-opacity:1" d="M45.5,117.5L46.5 117.5L46.5 116.5L45.5 116.5L45.5 117.5" />
<path style="fill:#F6C596;fill-opacity:1" d="M47.5,117.5L48.5 117.5L48.5 116.5L47.5 116.5L47.5 117.5" />
<path style="fill:#F6C393;fill-opacity:1" d="M48.5,117.5L49.5 117.5L49.5 116.5L48.5 116.5L48.5 117.5" />
<path style="fill:#F6C295;fill-opacity:1" d="M49.5,117.5L50.5 117.5L50.5 116.5L49.5 116.5L49.5 117.5" />
<path style="fill:#F6C696;fill-opacity:1" d="M50.5,117.5L51.5 117.5L51.5 116.5L50.5 116.5L50.5 117.5" />
<path style="fill:#F6C295;fill-opacity:1" d="M51.5,117.5L53.5 117.5L53.5 116.5L51.5 116.5L51.5 117.5" />
<path style="fill:#F6C496;fill-opacity:1" d="M53.5,117.5L54.5 117.5L54.5 116.5L53.5 116.5L53.5 117.5" />
<path style="fill:#F6C496;fill-opacity:1" d="M59.5,117.5L60.5 117.5L60.5 116.5L59.5 116.5L59.5 117.5" />
<path style="fill:#F4C392;fill-opacity:1" d="M60.5,117.5L61.5 117.5L61.5 116.5L60.5 116.5L60.5 117.5" />
<path style="fill:#F6C496;fill-opacity:1" d="M61.5,117.5L62.5 117.5L62.5 116.5L61.5 116.5L61.5 117.5" />
<path style="fill:#F6C295;fill-opacity:1" d="M62.5,117.5L63.5 117.5L63.5 116.5L62.5 116.5L62.5 117.5" />
<path style="fill:#F6C392;fill-opacity:1" d="M63.5,117.5L64.5 117.5L64.5 116.5L63.5 116.5L63.5 117.5" />
<path style="fill:#F6C696;fill-opacity:1" d="M65.5,117.5L66.5 117.5L66.5 116.5L65.5 116.5L65.5 117.5" />
<path style="fill:#F6C496;fill-opacity:1" d="M67.5,117.5L68.5 117.5L68.5 116.5L67.5 116.5L67.5 117.5" />
<path style="fill:#F6C392;fill-opacity:1" d="M68.5,117.5L69.5 117.5L69.5 116.5L68.5 116.5L68.5 117.5" />
<path style="fill:#F6C295;fill-opacity:1" d="M69.5,117.5L70.5 117.5L70.5 116.5L69.5 116.5L69.5 117.5" />
<path style="fill:#F6C496;fill-opacity:1" d="M70.5,117.5L71.5 117.5L71.5 116.5L70.5 116.5L70.5 117.5" />
<path style="fill:#F6C295;fill-opacity:1" d="M71.5,117.5L73.5 117.5L73.5 116.5L71.5 116.5L71.5 117.5" />
<path style="fill:#F6C496;fill-opacity:1" d="M79.5,117.5L80.5 117.5L80.5 116.5L79.5 116.5L79.5 117.5" />
<path style="fill:#F5C392;fill-opacity:1" d="M80.5,117.5L81.5 117.5L81.5 116.5L80.5 116.5L80.5 117.5" />
<path style="fill:#F6C496;fill-opacity:1" d="M81.5,117.5L82.5 117.5L82.5 116.5L81.5 116.5L81.5 117.5" />
<path style="fill:#F6C295;fill-opacity:1" d="M82.5,117.5L83.5 117.5L83.5 116.5L82.5 116.5L82.5 117.5" />
<path style="fill:#F6C392;fill-opacity:1" d="M83.5,117.5L84.5 117.5L84.5 116.5L83.5 116.5L83.5 117.5" />
<path style="fill:#F6C295;fill-opacity:1" d="M84.5,117.5L86.5 117.5L86.5 116.5L84.5 116.5L84.5 117.5" />
<path style="fill:#F6C496;fill-opacity:1" d="M86.5,117.5L87.5 117.5L87.5 116.5L86.5 116.5L86.5 117.5" />
<path style="fill:#F6C696;fill-opacity:1" d="M92.5,117.5L93.5 117.5L93.5 116.5L92.5 116.5L92.5 117.5" />
<path style="fill:#F4C392;fill-opacity:1" d="M93.5,117.5L94.5 117.5L94.5 116.5L93.5 116.5L93.5 117.5" />
<path style="fill:#F6C496;fill-opacity:1" d="M94.5,117.5L95.5 117.5L95.5 116.5L94.5 116.5L94.5 117.5" />
<path style="fill:#F6C295;fill-opacity:1" d="M95.5,117.5L96.5 117.5L96.5 116.5L95.5 116.5L95.5 117.5" />
<path style="fill:#F6C392;fill-opacity:1" d="M96.5,117.5L97.5 117.5L97.5 116.5L96.5 116.5L96.5 117.5" />
<path style="fill:#F6C496;fill-opacity:1" d="M98.5,117.5L99.5 117.5L99.5 116.5L98.5 116.5L98.5 117.5" />
<path style="fill:#F6C496;fill-opacity:1" d="M100.5,117.5L101.5 117.5L101.5 116.5L100.5 116.5L100.5 117.5" />
<path style="fill:#F6C392;fill-opacity:1" d="M101.5,117.5L102.5 117.5L102.5 116.5L101.5 116.5L101.5 117.5" />
<path style="fill:#F6C295;fill-opacity:1" d="M102.5,117.5L103.5 117.5L103.5 116.5L102.5 116.5L102.5 117.5" />
<path style="fill:#F6C496;fill-opacity:1" d="M103.5,117.5L104.5 117.5L104.5 116.5L103.5 116.5L103.5 117.5" />
<path style="fill:#440B00;fill-opacity:1" d="M109.5,117.5L110.5 117.5L110.5 116.5L109.5 116.5L109.5 117.5" />
<path style="fill:#A94A00;fill-opacity:1" d="M113.5,117.5L114.5 117.5L114.5 116.5L113.5 116.5L113.5 117.5" />
<path style="fill:#FF8600;fill-opacity:1" d="M114.5,117.5L115.5 117.5L115.5 116.5L114.5 116.5L114.5 117.5" />
</g>
</svg>
