<?xml version="1.0" encoding="utf-8"?>
<svg version="1.1" id="Layer_1"
xmlns="http://www.w3.org/2000/svg"
xmlns:xlink="http://www.w3.org/1999/xlink"
xmlns:author="http://www.sothink.com"
width="318px" height="22px"
xml:space="preserve">
<g id="1" transform="matrix(1, 0, 0, 1, -12.05, -15.9)">
<path style="fill:#B54E4E;fill-opacity:1" d="M34.15,16.9Q35.3 17.9 35.3 20.05L35.3 25.1Q35.3 27.25 34.15 28.25Q33 29.25 30.45 29.25L27.6 29.25L37.55 37.35L30.35 37.35L21.7 29.25L17 29.25L17 37.35L12.05 37.35L12.05 15.9L30.45 15.9Q32.9 15.9 34.15 16.9M30.45,21.3Q30.45 20.4 30 20Q29.45 19.6 28.2 19.6L17 19.6L17 25.6L28.2 25.6Q29.45 25.6 30 25.2Q30.45 24.85 30.45 23.9L30.45 21.3" />
<path style="fill:#B54E4E;fill-opacity:1" d="M64.6,19.55L47.6 19.55L47.6 24.35L57.5 24.35L57.5 28L47.6 28L47.6 33.35L64.8 33.35L64.8 37.35L42.6 37.35L42.6 15.9L64.6 15.9L64.6 19.55" />
<path style="fill:#B54E4E;fill-opacity:1" d="M96.4,37.35L90.75 37.35L88.2 32.7L74.6 32.7L72.1 37.35L67.1 37.35L79.25 15.9L84.05 15.9L96.4 37.35M81.5,20.05L76.7 28.8L86.1 28.8L81.5 20.05" />
<path style="fill:#B54E4E;fill-opacity:1" d="M99.75,37.35L99.75 15.9L104.75 15.9L104.75 33.35L120.85 33.35L120.85 37.35L99.75 37.35" />
<path style="fill:#B54E4E;fill-opacity:1" d="M147.7,24.05L139.65 34.8L138.65 34.8L129.8 22.9L129.3 21.85L129.4 23.05L129.4 37.35L125.35 37.35L125.35 15.9L129.4 15.9L139.55 28.9L149.4 15.9L153.45 15.9L153.45 37.35L148.8 37.35L148.85 23.15L149 21.8L147.7 24.05" />
<path style="fill:#B54E4E;fill-opacity:1" d="M199.65,21L199.65 32.3Q199.65 35.25 198.55 36.3Q197.5 37.35 194.35 37.35L178.55 37.35Q175.45 37.35 174.3 36.3Q173.2 35.2 173.2 32.3L173.2 21Q173.2 18.1 174.3 17Q175.4 15.9 178.55 15.9L194.35 15.9Q197.5 15.9 198.55 17Q199.65 18.05 199.65 21M178.2,33.35L194.7 33.35L194.7 19.75L178.2 19.75L178.2 33.35" />
<path style="fill:#B54E4E;fill-opacity:1" d="M232.25,19.65L215.5 19.65L215.5 25.3L224.55 25.3L224.55 29.25L215.5 29.25L215.5 37.35L210.5 37.35L210.5 15.9L232.25 15.9L232.25 19.65" />
<path style="fill:#B54E4E;fill-opacity:1" d="M261.2,19.75L261.2 37.35L256.2 37.35L256.2 19.75L246.35 19.75L246.35 15.9L271.1 15.9L271.1 19.75L261.2 19.75" />
<path style="fill:#B54E4E;fill-opacity:1" d="M294.45,15.9L299.5 15.9L299.5 37.35L294.45 37.35L294.45 28.15L278.85 28.15L278.85 37.35L273.85 37.35L273.85 15.9L278.85 15.9L278.85 24.25L294.45 24.25L294.45 15.9" />
<path style="fill:#B54E4E;fill-opacity:1" d="M329.35,19.55L312.35 19.55L312.35 24.35L322.25 24.35L322.25 28L312.35 28L312.35 33.35L329.55 33.35L329.55 37.35L307.35 37.35L307.35 15.9L329.35 15.9L329.35 19.55" />
</g>
</svg>
